<svg xmlns="http://www.w3.org/2000/svg" xmlns:xlink="http://www.w3.org/1999/xlink" width="250" zoomAndPan="magnify" viewBox="0 0 187.5 37.5" height="50" preserveAspectRatio="xMidYMid meet" version="1.0"><defs><g/></defs><g fill="#ffffff" fill-opacity="1"><g transform="translate(18.691636, 25.457346)"><g><path d="M 15.5 -2.5 C 15.5 -1.976562 15.40625 -1.585938 15.21875 -1.328125 C 15.03125 -1.078125 14.734375 -0.835938 14.328125 -0.609375 C 14.097656 -0.472656 13.804688 -0.34375 13.453125 -0.21875 C 13.097656 -0.09375 12.707031 0.015625 12.28125 0.109375 C 11.863281 0.203125 11.421875 0.273438 10.953125 0.328125 C 10.492188 0.378906 10.039062 0.40625 9.59375 0.40625 C 8.375 0.40625 7.234375 0.242188 6.171875 -0.078125 C 5.117188 -0.410156 4.203125 -0.910156 3.421875 -1.578125 C 2.640625 -2.242188 2.019531 -3.070312 1.5625 -4.0625 C 1.113281 -5.050781 0.890625 -6.203125 0.890625 -7.515625 C 0.890625 -8.898438 1.132812 -10.101562 1.625 -11.125 C 2.125 -12.15625 2.78125 -13.007812 3.59375 -13.6875 C 4.40625 -14.375 5.335938 -14.882812 6.390625 -15.21875 C 7.441406 -15.550781 8.523438 -15.71875 9.640625 -15.71875 C 11.234375 -15.71875 12.5 -15.460938 13.4375 -14.953125 C 14.375 -14.441406 14.84375 -13.769531 14.84375 -12.9375 C 14.84375 -12.507812 14.734375 -12.132812 14.515625 -11.8125 C 14.296875 -11.488281 14.039062 -11.234375 13.75 -11.046875 C 13.332031 -11.304688 12.804688 -11.554688 12.171875 -11.796875 C 11.546875 -12.035156 10.835938 -12.15625 10.046875 -12.15625 C 8.628906 -12.15625 7.503906 -11.75 6.671875 -10.9375 C 5.835938 -10.132812 5.421875 -9.019531 5.421875 -7.59375 C 5.421875 -6.820312 5.535156 -6.15625 5.765625 -5.59375 C 5.992188 -5.03125 6.300781 -4.566406 6.6875 -4.203125 C 7.070312 -3.835938 7.515625 -3.566406 8.015625 -3.390625 C 8.523438 -3.210938 9.066406 -3.125 9.640625 -3.125 C 10.003906 -3.125 10.328125 -3.15625 10.609375 -3.21875 C 10.898438 -3.289062 11.125 -3.367188 11.28125 -3.453125 L 11.28125 -5.828125 L 8.578125 -5.828125 C 8.472656 -6.015625 8.375 -6.257812 8.28125 -6.5625 C 8.195312 -6.863281 8.15625 -7.179688 8.15625 -7.515625 C 8.15625 -8.117188 8.289062 -8.554688 8.5625 -8.828125 C 8.84375 -9.097656 9.203125 -9.234375 9.640625 -9.234375 L 13.90625 -9.234375 C 14.40625 -9.234375 14.796875 -9.09375 15.078125 -8.8125 C 15.359375 -8.539062 15.5 -8.148438 15.5 -7.640625 Z M 15.5 -2.5 "/></g></g></g><g fill="#ffffff" fill-opacity="1"><g transform="translate(35.445361, 25.457346)"><g><path d="M 5.609375 -0.03125 C 5.429688 0.0195312 5.160156 0.0703125 4.796875 0.125 C 4.441406 0.175781 4.070312 0.203125 3.6875 0.203125 C 3.3125 0.203125 2.976562 0.175781 2.6875 0.125 C 2.394531 0.0703125 2.144531 -0.0234375 1.9375 -0.171875 C 1.738281 -0.328125 1.582031 -0.535156 1.46875 -0.796875 C 1.363281 -1.054688 1.3125 -1.394531 1.3125 -1.8125 L 1.3125 -9.390625 C 1.3125 -9.773438 1.378906 -10.101562 1.515625 -10.375 C 1.660156 -10.65625 1.867188 -10.90625 2.140625 -11.125 C 2.410156 -11.34375 2.742188 -11.539062 3.140625 -11.71875 C 3.535156 -11.894531 3.957031 -12.050781 4.40625 -12.1875 C 4.863281 -12.320312 5.335938 -12.425781 5.828125 -12.5 C 6.316406 -12.582031 6.804688 -12.625 7.296875 -12.625 C 8.097656 -12.625 8.734375 -12.46875 9.203125 -12.15625 C 9.679688 -11.84375 9.921875 -11.332031 9.921875 -10.625 C 9.921875 -10.382812 9.882812 -10.148438 9.8125 -9.921875 C 9.75 -9.703125 9.664062 -9.5 9.5625 -9.3125 C 9.207031 -9.3125 8.84375 -9.289062 8.46875 -9.25 C 8.101562 -9.21875 7.742188 -9.171875 7.390625 -9.109375 C 7.035156 -9.046875 6.703125 -8.972656 6.390625 -8.890625 C 6.085938 -8.816406 5.828125 -8.726562 5.609375 -8.625 Z M 5.609375 -0.03125 "/></g></g></g><g fill="#ffffff" fill-opacity="1"><g transform="translate(45.815516, 25.457346)"><g><path d="M 6.5625 -2.71875 C 6.84375 -2.71875 7.15625 -2.75 7.5 -2.8125 C 7.851562 -2.875 8.113281 -2.953125 8.28125 -3.046875 L 8.28125 -5.078125 L 6.453125 -4.921875 C 5.984375 -4.890625 5.597656 -4.785156 5.296875 -4.609375 C 4.992188 -4.441406 4.84375 -4.191406 4.84375 -3.859375 C 4.84375 -3.523438 4.972656 -3.25 5.234375 -3.03125 C 5.492188 -2.820312 5.9375 -2.71875 6.5625 -2.71875 Z M 6.359375 -12.640625 C 7.265625 -12.640625 8.09375 -12.546875 8.84375 -12.359375 C 9.59375 -12.179688 10.234375 -11.898438 10.765625 -11.515625 C 11.296875 -11.140625 11.703125 -10.660156 11.984375 -10.078125 C 12.273438 -9.492188 12.421875 -8.8125 12.421875 -8.03125 L 12.421875 -2.375 C 12.421875 -1.9375 12.296875 -1.578125 12.046875 -1.296875 C 11.804688 -1.023438 11.515625 -0.785156 11.171875 -0.578125 C 10.078125 0.078125 8.539062 0.40625 6.5625 0.40625 C 5.664062 0.40625 4.859375 0.320312 4.140625 0.15625 C 3.429688 -0.0078125 2.820312 -0.257812 2.3125 -0.59375 C 1.800781 -0.9375 1.40625 -1.367188 1.125 -1.890625 C 0.84375 -2.410156 0.703125 -3.015625 0.703125 -3.703125 C 0.703125 -4.867188 1.046875 -5.757812 1.734375 -6.375 C 2.429688 -7 3.503906 -7.390625 4.953125 -7.546875 L 8.25 -7.890625 L 8.25 -8.078125 C 8.25 -8.566406 8.035156 -8.914062 7.609375 -9.125 C 7.179688 -9.332031 6.5625 -9.4375 5.75 -9.4375 C 5.113281 -9.4375 4.492188 -9.367188 3.890625 -9.234375 C 3.285156 -9.097656 2.738281 -8.929688 2.25 -8.734375 C 2.03125 -8.878906 1.84375 -9.109375 1.6875 -9.421875 C 1.539062 -9.734375 1.46875 -10.054688 1.46875 -10.390625 C 1.46875 -10.828125 1.570312 -11.175781 1.78125 -11.4375 C 1.988281 -11.695312 2.3125 -11.921875 2.75 -12.109375 C 3.238281 -12.296875 3.8125 -12.429688 4.46875 -12.515625 C 5.132812 -12.597656 5.765625 -12.640625 6.359375 -12.640625 Z M 6.359375 -12.640625 "/></g></g></g><g fill="#ffffff" fill-opacity="1"><g transform="translate(59.541461, 25.457346)"><g><path d="M 9.078125 -7.765625 C 9.078125 -8.285156 8.929688 -8.664062 8.640625 -8.90625 C 8.347656 -9.15625 7.945312 -9.28125 7.4375 -9.28125 C 7.101562 -9.28125 6.769531 -9.238281 6.4375 -9.15625 C 6.113281 -9.070312 5.835938 -8.945312 5.609375 -8.78125 L 5.609375 -0.03125 C 5.429688 0.0195312 5.160156 0.0703125 4.796875 0.125 C 4.441406 0.175781 4.070312 0.203125 3.6875 0.203125 C 3.3125 0.203125 2.976562 0.175781 2.6875 0.125 C 2.394531 0.0703125 2.144531 -0.0234375 1.9375 -0.171875 C 1.738281 -0.328125 1.582031 -0.535156 1.46875 -0.796875 C 1.363281 -1.054688 1.3125 -1.394531 1.3125 -1.8125 L 1.3125 -9.390625 C 1.3125 -9.835938 1.40625 -10.203125 1.59375 -10.484375 C 1.789062 -10.773438 2.054688 -11.039062 2.390625 -11.28125 C 2.960938 -11.6875 3.679688 -12.015625 4.546875 -12.265625 C 5.421875 -12.515625 6.382812 -12.640625 7.4375 -12.640625 C 9.34375 -12.640625 10.804688 -12.222656 11.828125 -11.390625 C 12.859375 -10.554688 13.375 -9.398438 13.375 -7.921875 L 13.375 -0.03125 C 13.207031 0.0195312 12.941406 0.0703125 12.578125 0.125 C 12.210938 0.175781 11.835938 0.203125 11.453125 0.203125 C 11.085938 0.203125 10.753906 0.175781 10.453125 0.125 C 10.160156 0.0703125 9.910156 -0.0234375 9.703125 -0.171875 C 9.503906 -0.328125 9.347656 -0.535156 9.234375 -0.796875 C 9.128906 -1.054688 9.078125 -1.394531 9.078125 -1.8125 Z M 9.078125 -7.765625 "/></g></g></g><g fill="#ffffff" fill-opacity="1"><g transform="translate(74.251441, 25.457346)"><g><path d="M 0.78125 -6.125 C 0.78125 -7.238281 0.945312 -8.203125 1.28125 -9.015625 C 1.625 -9.835938 2.09375 -10.515625 2.6875 -11.046875 C 3.28125 -11.585938 3.976562 -11.988281 4.78125 -12.25 C 5.582031 -12.507812 6.445312 -12.640625 7.375 -12.640625 C 7.707031 -12.640625 8.03125 -12.609375 8.34375 -12.546875 C 8.664062 -12.492188 8.929688 -12.425781 9.140625 -12.34375 L 9.140625 -16.421875 C 9.304688 -16.472656 9.570312 -16.53125 9.9375 -16.59375 C 10.3125 -16.65625 10.691406 -16.6875 11.078125 -16.6875 C 11.453125 -16.6875 11.785156 -16.660156 12.078125 -16.609375 C 12.367188 -16.554688 12.613281 -16.453125 12.8125 -16.296875 C 13.019531 -16.148438 13.171875 -15.945312 13.265625 -15.6875 C 13.367188 -15.425781 13.421875 -15.082031 13.421875 -14.65625 L 13.421875 -2.703125 C 13.421875 -1.910156 13.050781 -1.28125 12.3125 -0.8125 C 11.820312 -0.488281 11.191406 -0.207031 10.421875 0.03125 C 9.648438 0.28125 8.757812 0.40625 7.75 0.40625 C 6.65625 0.40625 5.671875 0.253906 4.796875 -0.046875 C 3.929688 -0.347656 3.203125 -0.785156 2.609375 -1.359375 C 2.015625 -1.929688 1.5625 -2.617188 1.25 -3.421875 C 0.9375 -4.222656 0.78125 -5.125 0.78125 -6.125 Z M 7.953125 -9.28125 C 7.046875 -9.28125 6.347656 -9.019531 5.859375 -8.5 C 5.367188 -7.976562 5.125 -7.1875 5.125 -6.125 C 5.125 -5.082031 5.347656 -4.296875 5.796875 -3.765625 C 6.253906 -3.242188 6.910156 -2.984375 7.765625 -2.984375 C 8.066406 -2.984375 8.335938 -3.023438 8.578125 -3.109375 C 8.828125 -3.203125 9.019531 -3.3125 9.15625 -3.4375 L 9.15625 -8.984375 C 8.820312 -9.179688 8.421875 -9.28125 7.953125 -9.28125 Z M 7.953125 -9.28125 "/></g></g></g><g fill="#ffffff" fill-opacity="1"><g transform="translate(89.037108, 25.457346)"><g><path d="M 1.234375 -4.6875 C 1.117188 -4.875 1.007812 -5.117188 0.90625 -5.421875 C 0.800781 -5.722656 0.75 -6.046875 0.75 -6.390625 C 0.75 -7.003906 0.890625 -7.453125 1.171875 -7.734375 C 1.460938 -8.015625 1.835938 -8.15625 2.296875 -8.15625 L 7.703125 -8.15625 C 7.796875 -7.96875 7.894531 -7.722656 8 -7.421875 C 8.113281 -7.117188 8.171875 -6.796875 8.171875 -6.453125 C 8.171875 -5.835938 8.023438 -5.390625 7.734375 -5.109375 C 7.453125 -4.828125 7.085938 -4.6875 6.640625 -4.6875 Z M 1.234375 -4.6875 "/></g></g></g><g fill="#ffffff" fill-opacity="1"><g transform="translate(97.96906, 25.457346)"><g><path d="M 15.3125 -0.09375 C 15.132812 -0.0507812 14.847656 -0.00390625 14.453125 0.046875 C 14.054688 0.0976562 13.660156 0.125 13.265625 0.125 C 12.878906 0.125 12.539062 0.09375 12.25 0.03125 C 11.957031 -0.0195312 11.707031 -0.117188 11.5 -0.265625 C 11.300781 -0.421875 11.148438 -0.632812 11.046875 -0.90625 C 10.953125 -1.175781 10.90625 -1.53125 10.90625 -1.96875 L 10.90625 -5.90625 L 6.0625 -5.90625 L 6.0625 -0.09375 C 5.875 -0.0507812 5.582031 -0.00390625 5.1875 0.046875 C 4.789062 0.0976562 4.398438 0.125 4.015625 0.125 C 3.628906 0.125 3.285156 0.09375 2.984375 0.03125 C 2.691406 -0.0195312 2.441406 -0.117188 2.234375 -0.265625 C 2.035156 -0.421875 1.882812 -0.632812 1.78125 -0.90625 C 1.6875 -1.175781 1.640625 -1.53125 1.640625 -1.96875 L 1.640625 -15.296875 C 1.828125 -15.328125 2.117188 -15.367188 2.515625 -15.421875 C 2.921875 -15.484375 3.3125 -15.515625 3.6875 -15.515625 C 4.070312 -15.515625 4.410156 -15.484375 4.703125 -15.421875 C 4.992188 -15.367188 5.238281 -15.265625 5.4375 -15.109375 C 5.644531 -14.960938 5.800781 -14.753906 5.90625 -14.484375 C 6.007812 -14.210938 6.0625 -13.859375 6.0625 -13.421875 L 6.0625 -9.390625 L 10.90625 -9.390625 L 10.90625 -15.296875 C 11.082031 -15.328125 11.375 -15.367188 11.78125 -15.421875 C 12.1875 -15.484375 12.570312 -15.515625 12.9375 -15.515625 C 13.332031 -15.515625 13.675781 -15.484375 13.96875 -15.421875 C 14.257812 -15.367188 14.503906 -15.265625 14.703125 -15.109375 C 14.910156 -14.960938 15.0625 -14.753906 15.15625 -14.484375 C 15.257812 -14.210938 15.3125 -13.859375 15.3125 -13.421875 Z M 15.3125 -0.09375 "/></g></g></g><g fill="#ffffff" fill-opacity="1"><g transform="translate(114.924639, 25.457346)"><g><path d="M 6.5625 -2.71875 C 6.84375 -2.71875 7.15625 -2.75 7.5 -2.8125 C 7.851562 -2.875 8.113281 -2.953125 8.28125 -3.046875 L 8.28125 -5.078125 L 6.453125 -4.921875 C 5.984375 -4.890625 5.597656 -4.785156 5.296875 -4.609375 C 4.992188 -4.441406 4.84375 -4.191406 4.84375 -3.859375 C 4.84375 -3.523438 4.972656 -3.25 5.234375 -3.03125 C 5.492188 -2.820312 5.9375 -2.71875 6.5625 -2.71875 Z M 6.359375 -12.640625 C 7.265625 -12.640625 8.09375 -12.546875 8.84375 -12.359375 C 9.59375 -12.179688 10.234375 -11.898438 10.765625 -11.515625 C 11.296875 -11.140625 11.703125 -10.660156 11.984375 -10.078125 C 12.273438 -9.492188 12.421875 -8.8125 12.421875 -8.03125 L 12.421875 -2.375 C 12.421875 -1.9375 12.296875 -1.578125 12.046875 -1.296875 C 11.804688 -1.023438 11.515625 -0.785156 11.171875 -0.578125 C 10.078125 0.078125 8.539062 0.40625 6.5625 0.40625 C 5.664062 0.40625 4.859375 0.320312 4.140625 0.15625 C 3.429688 -0.0078125 2.820312 -0.257812 2.3125 -0.59375 C 1.800781 -0.9375 1.40625 -1.367188 1.125 -1.890625 C 0.84375 -2.410156 0.703125 -3.015625 0.703125 -3.703125 C 0.703125 -4.867188 1.046875 -5.757812 1.734375 -6.375 C 2.429688 -7 3.503906 -7.390625 4.953125 -7.546875 L 8.25 -7.890625 L 8.25 -8.078125 C 8.25 -8.566406 8.035156 -8.914062 7.609375 -9.125 C 7.179688 -9.332031 6.5625 -9.4375 5.75 -9.4375 C 5.113281 -9.4375 4.492188 -9.367188 3.890625 -9.234375 C 3.285156 -9.097656 2.738281 -8.929688 2.25 -8.734375 C 2.03125 -8.878906 1.84375 -9.109375 1.6875 -9.421875 C 1.539062 -9.734375 1.46875 -10.054688 1.46875 -10.390625 C 1.46875 -10.828125 1.570312 -11.175781 1.78125 -11.4375 C 1.988281 -11.695312 2.3125 -11.921875 2.75 -12.109375 C 3.238281 -12.296875 3.8125 -12.429688 4.46875 -12.515625 C 5.132812 -12.597656 5.765625 -12.640625 6.359375 -12.640625 Z M 6.359375 -12.640625 "/></g></g></g><g fill="#ffffff" fill-opacity="1"><g transform="translate(128.650584, 25.457346)"><g><path d="M 5.671875 -0.03125 C 5.492188 0.0078125 5.222656 0.0546875 4.859375 0.109375 C 4.492188 0.171875 4.128906 0.203125 3.765625 0.203125 C 3.390625 0.203125 3.054688 0.175781 2.765625 0.125 C 2.472656 0.0703125 2.222656 -0.0234375 2.015625 -0.171875 C 1.816406 -0.328125 1.660156 -0.535156 1.546875 -0.796875 C 1.441406 -1.054688 1.390625 -1.394531 1.390625 -1.8125 L 1.390625 -16.453125 C 1.578125 -16.484375 1.847656 -16.53125 2.203125 -16.59375 C 2.566406 -16.65625 2.9375 -16.6875 3.3125 -16.6875 C 3.675781 -16.6875 4.003906 -16.660156 4.296875 -16.609375 C 4.597656 -16.554688 4.847656 -16.453125 5.046875 -16.296875 C 5.242188 -16.148438 5.394531 -15.945312 5.5 -15.6875 C 5.613281 -15.425781 5.671875 -15.082031 5.671875 -14.65625 Z M 5.671875 -0.03125 "/></g></g></g><g fill="#ffffff" fill-opacity="1"><g transform="translate(135.715407, 25.457346)"><g><path d="M 5.671875 -0.03125 C 5.492188 0.0078125 5.222656 0.0546875 4.859375 0.109375 C 4.492188 0.171875 4.128906 0.203125 3.765625 0.203125 C 3.390625 0.203125 3.054688 0.175781 2.765625 0.125 C 2.472656 0.0703125 2.222656 -0.0234375 2.015625 -0.171875 C 1.816406 -0.328125 1.660156 -0.535156 1.546875 -0.796875 C 1.441406 -1.054688 1.390625 -1.394531 1.390625 -1.8125 L 1.390625 -16.453125 C 1.578125 -16.484375 1.847656 -16.53125 2.203125 -16.59375 C 2.566406 -16.65625 2.9375 -16.6875 3.3125 -16.6875 C 3.675781 -16.6875 4.003906 -16.660156 4.296875 -16.609375 C 4.597656 -16.554688 4.847656 -16.453125 5.046875 -16.296875 C 5.242188 -16.148438 5.394531 -15.945312 5.5 -15.6875 C 5.613281 -15.425781 5.671875 -15.082031 5.671875 -14.65625 Z M 5.671875 -0.03125 "/></g></g></g><g fill="#ffffff" fill-opacity="1"><g transform="translate(142.780229, 25.457346)"><g><path d="M 7.796875 0.40625 C 6.804688 0.40625 5.882812 0.269531 5.03125 0 C 4.1875 -0.28125 3.445312 -0.695312 2.8125 -1.25 C 2.1875 -1.8125 1.691406 -2.515625 1.328125 -3.359375 C 0.960938 -4.203125 0.78125 -5.1875 0.78125 -6.3125 C 0.78125 -7.414062 0.960938 -8.367188 1.328125 -9.171875 C 1.691406 -9.972656 2.164062 -10.628906 2.75 -11.140625 C 3.34375 -11.648438 4.015625 -12.023438 4.765625 -12.265625 C 5.523438 -12.515625 6.300781 -12.640625 7.09375 -12.640625 C 7.976562 -12.640625 8.785156 -12.503906 9.515625 -12.234375 C 10.253906 -11.960938 10.890625 -11.59375 11.421875 -11.125 C 11.953125 -10.65625 12.363281 -10.09375 12.65625 -9.4375 C 12.945312 -8.78125 13.09375 -8.066406 13.09375 -7.296875 C 13.09375 -6.722656 12.929688 -6.285156 12.609375 -5.984375 C 12.296875 -5.679688 11.851562 -5.488281 11.28125 -5.40625 L 5.046875 -4.46875 C 5.234375 -3.914062 5.613281 -3.5 6.1875 -3.21875 C 6.757812 -2.9375 7.414062 -2.796875 8.15625 -2.796875 C 8.84375 -2.796875 9.492188 -2.882812 10.109375 -3.0625 C 10.722656 -3.238281 11.222656 -3.445312 11.609375 -3.6875 C 11.878906 -3.519531 12.101562 -3.285156 12.28125 -2.984375 C 12.46875 -2.679688 12.5625 -2.359375 12.5625 -2.015625 C 12.5625 -1.265625 12.207031 -0.703125 11.5 -0.328125 C 10.96875 -0.046875 10.363281 0.144531 9.6875 0.25 C 9.019531 0.351562 8.390625 0.40625 7.796875 0.40625 Z M 7.09375 -9.515625 C 6.6875 -9.515625 6.335938 -9.445312 6.046875 -9.3125 C 5.753906 -9.175781 5.515625 -9.003906 5.328125 -8.796875 C 5.140625 -8.585938 5 -8.351562 4.90625 -8.09375 C 4.8125 -7.832031 4.757812 -7.566406 4.75 -7.296875 L 9.0625 -8 C 9.007812 -8.332031 8.820312 -8.664062 8.5 -9 C 8.1875 -9.34375 7.71875 -9.515625 7.09375 -9.515625 Z M 7.09375 -9.515625 "/></g></g></g><g fill="#ffffff" fill-opacity="1"><g transform="translate(156.632331, 25.457346)"><g><path d="M 5.609375 -4.21875 C 5.609375 -3.78125 5.742188 -3.46875 6.015625 -3.28125 C 6.296875 -3.09375 6.6875 -3 7.1875 -3 C 7.445312 -3 7.707031 -3.019531 7.96875 -3.0625 C 8.238281 -3.101562 8.476562 -3.160156 8.6875 -3.234375 C 8.832031 -3.046875 8.957031 -2.835938 9.0625 -2.609375 C 9.175781 -2.378906 9.234375 -2.109375 9.234375 -1.796875 C 9.234375 -1.148438 8.992188 -0.625 8.515625 -0.21875 C 8.035156 0.175781 7.191406 0.375 5.984375 0.375 C 4.503906 0.375 3.363281 0.0390625 2.5625 -0.625 C 1.757812 -1.300781 1.359375 -2.394531 1.359375 -3.90625 L 1.359375 -14.71875 C 1.546875 -14.757812 1.8125 -14.8125 2.15625 -14.875 C 2.5 -14.9375 2.863281 -14.96875 3.25 -14.96875 C 3.988281 -14.96875 4.566406 -14.835938 4.984375 -14.578125 C 5.398438 -14.316406 5.609375 -13.765625 5.609375 -12.921875 L 5.609375 -11.3125 L 8.90625 -11.3125 C 9.007812 -11.125 9.109375 -10.890625 9.203125 -10.609375 C 9.296875 -10.328125 9.34375 -10.019531 9.34375 -9.6875 C 9.34375 -9.101562 9.207031 -8.679688 8.9375 -8.421875 C 8.675781 -8.160156 8.328125 -8.03125 7.890625 -8.03125 L 5.609375 -8.03125 Z M 5.609375 -4.21875 "/></g></g></g></svg>