<svg xmlns="http://www.w3.org/2000/svg" xmlns:xlink="http://www.w3.org/1999/xlink" width="500" zoomAndPan="magnify" viewBox="0 0 375 225" height="300" preserveAspectRatio="xMidYMid meet" version="1.0"><defs><g/></defs><g fill="#ffffff" fill-opacity="1"><g transform="translate(28.921874, 128.377301)"><g><path d="M 27.859375 -4.484375 C 27.859375 -3.546875 27.691406 -2.847656 27.359375 -2.390625 C 27.023438 -1.941406 26.492188 -1.507812 25.765625 -1.09375 C 25.347656 -0.84375 24.820312 -0.601562 24.1875 -0.375 C 23.550781 -0.15625 22.851562 0.0351562 22.09375 0.203125 C 21.34375 0.367188 20.550781 0.492188 19.71875 0.578125 C 18.882812 0.671875 18.0625 0.71875 17.25 0.71875 C 15.0625 0.71875 13.015625 0.425781 11.109375 -0.15625 C 9.210938 -0.75 7.554688 -1.640625 6.140625 -2.828125 C 4.734375 -4.023438 3.625 -5.515625 2.8125 -7.296875 C 2 -9.085938 1.59375 -11.160156 1.59375 -13.515625 C 1.59375 -16.003906 2.035156 -18.171875 2.921875 -20.015625 C 3.816406 -21.859375 5 -23.390625 6.46875 -24.609375 C 7.9375 -25.835938 9.613281 -26.753906 11.5 -27.359375 C 13.394531 -27.960938 15.335938 -28.265625 17.328125 -28.265625 C 20.203125 -28.265625 22.476562 -27.800781 24.15625 -26.875 C 25.84375 -25.957031 26.6875 -24.757812 26.6875 -23.28125 C 26.6875 -22.488281 26.488281 -21.804688 26.09375 -21.234375 C 25.695312 -20.660156 25.242188 -20.207031 24.734375 -19.875 C 23.972656 -20.332031 23.023438 -20.78125 21.890625 -21.21875 C 20.753906 -21.65625 19.476562 -21.875 18.0625 -21.875 C 15.519531 -21.875 13.5 -21.144531 12 -19.6875 C 10.5 -18.238281 9.75 -16.226562 9.75 -13.65625 C 9.75 -12.269531 9.953125 -11.066406 10.359375 -10.046875 C 10.773438 -9.035156 11.328125 -8.203125 12.015625 -7.546875 C 12.710938 -6.898438 13.515625 -6.414062 14.421875 -6.09375 C 15.335938 -5.78125 16.304688 -5.625 17.328125 -5.625 C 17.992188 -5.625 18.582031 -5.679688 19.09375 -5.796875 C 19.613281 -5.921875 20.007812 -6.0625 20.28125 -6.21875 L 20.28125 -10.484375 L 15.421875 -10.484375 C 15.242188 -10.816406 15.070312 -11.253906 14.90625 -11.796875 C 14.738281 -12.335938 14.65625 -12.910156 14.65625 -13.515625 C 14.65625 -14.609375 14.90625 -15.394531 15.40625 -15.875 C 15.90625 -16.363281 16.546875 -16.609375 17.328125 -16.609375 L 25 -16.609375 C 25.90625 -16.609375 26.609375 -16.359375 27.109375 -15.859375 C 27.609375 -15.359375 27.859375 -14.65625 27.859375 -13.75 Z M 27.859375 -4.484375 "/></g></g></g><g fill="#ffffff" fill-opacity="1"><g transform="translate(59.050825, 128.377301)"><g><path d="M 10.078125 -0.046875 C 9.773438 0.046875 9.296875 0.132812 8.640625 0.21875 C 7.992188 0.3125 7.320312 0.359375 6.625 0.359375 C 5.957031 0.359375 5.359375 0.3125 4.828125 0.21875 C 4.296875 0.132812 3.847656 -0.0390625 3.484375 -0.3125 C 3.128906 -0.582031 2.851562 -0.953125 2.65625 -1.421875 C 2.457031 -1.890625 2.359375 -2.503906 2.359375 -3.265625 L 2.359375 -16.875 C 2.359375 -17.570312 2.484375 -18.171875 2.734375 -18.671875 C 2.992188 -19.171875 3.367188 -19.617188 3.859375 -20.015625 C 4.335938 -20.398438 4.929688 -20.75 5.640625 -21.0625 C 6.359375 -21.382812 7.125 -21.664062 7.9375 -21.90625 C 8.757812 -22.15625 9.609375 -22.347656 10.484375 -22.484375 C 11.359375 -22.617188 12.234375 -22.6875 13.109375 -22.6875 C 14.566406 -22.6875 15.71875 -22.40625 16.5625 -21.84375 C 17.40625 -21.289062 17.828125 -20.378906 17.828125 -19.109375 C 17.828125 -18.679688 17.765625 -18.265625 17.640625 -17.859375 C 17.523438 -17.453125 17.378906 -17.082031 17.203125 -16.75 C 16.566406 -16.75 15.914062 -16.71875 15.25 -16.65625 C 14.582031 -16.59375 13.929688 -16.5 13.296875 -16.375 C 12.660156 -16.257812 12.0625 -16.132812 11.5 -16 C 10.9375 -15.863281 10.460938 -15.703125 10.078125 -15.515625 Z M 10.078125 -0.046875 "/></g></g></g><g fill="#ffffff" fill-opacity="1"><g transform="translate(77.699921, 128.377301)"><g><path d="M 11.796875 -4.90625 C 12.304688 -4.90625 12.867188 -4.957031 13.484375 -5.0625 C 14.109375 -5.164062 14.578125 -5.304688 14.890625 -5.484375 L 14.890625 -9.125 L 11.609375 -8.84375 C 10.765625 -8.78125 10.070312 -8.597656 9.53125 -8.296875 C 8.988281 -7.992188 8.71875 -7.539062 8.71875 -6.9375 C 8.71875 -6.332031 8.953125 -5.84375 9.421875 -5.46875 C 9.890625 -5.09375 10.679688 -4.90625 11.796875 -4.90625 Z M 11.4375 -22.734375 C 13.070312 -22.734375 14.5625 -22.566406 15.90625 -22.234375 C 17.25 -21.898438 18.394531 -21.390625 19.34375 -20.703125 C 20.300781 -20.023438 21.035156 -19.164062 21.546875 -18.125 C 22.066406 -17.082031 22.328125 -15.847656 22.328125 -14.421875 L 22.328125 -4.265625 C 22.328125 -3.472656 22.109375 -2.828125 21.671875 -2.328125 C 21.234375 -1.835938 20.707031 -1.410156 20.09375 -1.046875 C 18.132812 0.128906 15.367188 0.71875 11.796875 0.71875 C 10.191406 0.71875 8.742188 0.566406 7.453125 0.265625 C 6.171875 -0.0351562 5.066406 -0.488281 4.140625 -1.09375 C 3.222656 -1.695312 2.515625 -2.46875 2.015625 -3.40625 C 1.515625 -4.34375 1.265625 -5.429688 1.265625 -6.671875 C 1.265625 -8.753906 1.882812 -10.351562 3.125 -11.46875 C 4.363281 -12.59375 6.285156 -13.289062 8.890625 -13.5625 L 14.84375 -14.203125 L 14.84375 -14.515625 C 14.84375 -15.390625 14.457031 -16.015625 13.6875 -16.390625 C 12.914062 -16.773438 11.800781 -16.96875 10.34375 -16.96875 C 9.195312 -16.96875 8.078125 -16.847656 6.984375 -16.609375 C 5.898438 -16.367188 4.914062 -16.066406 4.03125 -15.703125 C 3.644531 -15.972656 3.3125 -16.382812 3.03125 -16.9375 C 2.757812 -17.5 2.625 -18.082031 2.625 -18.6875 C 2.625 -19.476562 2.8125 -20.109375 3.1875 -20.578125 C 3.570312 -21.046875 4.160156 -21.445312 4.953125 -21.78125 C 5.828125 -22.113281 6.859375 -22.351562 8.046875 -22.5 C 9.242188 -22.65625 10.375 -22.734375 11.4375 -22.734375 Z M 11.4375 -22.734375 "/></g></g></g><g fill="#ffffff" fill-opacity="1"><g transform="translate(102.383888, 128.377301)"><g><path d="M 16.328125 -13.96875 C 16.328125 -14.90625 16.0625 -15.59375 15.53125 -16.03125 C 15.007812 -16.476562 14.296875 -16.703125 13.390625 -16.703125 C 12.785156 -16.703125 12.1875 -16.625 11.59375 -16.46875 C 11 -16.320312 10.492188 -16.097656 10.078125 -15.796875 L 10.078125 -0.046875 C 9.773438 0.046875 9.296875 0.132812 8.640625 0.21875 C 7.992188 0.3125 7.320312 0.359375 6.625 0.359375 C 5.957031 0.359375 5.359375 0.3125 4.828125 0.21875 C 4.296875 0.132812 3.847656 -0.0390625 3.484375 -0.3125 C 3.128906 -0.582031 2.851562 -0.953125 2.65625 -1.421875 C 2.457031 -1.890625 2.359375 -2.503906 2.359375 -3.265625 L 2.359375 -16.875 C 2.359375 -17.695312 2.53125 -18.363281 2.875 -18.875 C 3.226562 -19.382812 3.707031 -19.851562 4.3125 -20.28125 C 5.34375 -21.007812 6.632812 -21.597656 8.1875 -22.046875 C 9.75 -22.503906 11.484375 -22.734375 13.390625 -22.734375 C 16.804688 -22.734375 19.4375 -21.984375 21.28125 -20.484375 C 23.125 -18.984375 24.046875 -16.90625 24.046875 -14.25 L 24.046875 -0.046875 C 23.742188 0.046875 23.265625 0.132812 22.609375 0.21875 C 21.960938 0.3125 21.289062 0.359375 20.59375 0.359375 C 19.9375 0.359375 19.34375 0.3125 18.8125 0.21875 C 18.28125 0.132812 17.832031 -0.0390625 17.46875 -0.3125 C 17.101562 -0.582031 16.820312 -0.953125 16.625 -1.421875 C 16.425781 -1.890625 16.328125 -2.503906 16.328125 -3.265625 Z M 16.328125 -13.96875 "/></g></g></g><g fill="#ffffff" fill-opacity="1"><g transform="translate(128.837466, 128.377301)"><g><path d="M 1.40625 -11.03125 C 1.40625 -13.019531 1.707031 -14.75 2.3125 -16.21875 C 2.914062 -17.6875 3.753906 -18.90625 4.828125 -19.875 C 5.898438 -20.84375 7.15625 -21.5625 8.59375 -22.03125 C 10.03125 -22.5 11.582031 -22.734375 13.25 -22.734375 C 13.851562 -22.734375 14.441406 -22.679688 15.015625 -22.578125 C 15.585938 -22.472656 16.054688 -22.34375 16.421875 -22.1875 L 16.421875 -29.546875 C 16.722656 -29.628906 17.207031 -29.722656 17.875 -29.828125 C 18.539062 -29.941406 19.222656 -30 19.921875 -30 C 20.585938 -30 21.179688 -29.953125 21.703125 -29.859375 C 22.234375 -29.765625 22.679688 -29.582031 23.046875 -29.3125 C 23.410156 -29.039062 23.679688 -28.671875 23.859375 -28.203125 C 24.046875 -27.734375 24.140625 -27.117188 24.140625 -26.359375 L 24.140625 -4.859375 C 24.140625 -3.429688 23.472656 -2.296875 22.140625 -1.453125 C 21.265625 -0.878906 20.128906 -0.375 18.734375 0.0625 C 17.347656 0.5 15.75 0.71875 13.9375 0.71875 C 11.96875 0.71875 10.203125 0.445312 8.640625 -0.09375 C 7.085938 -0.632812 5.769531 -1.421875 4.6875 -2.453125 C 3.613281 -3.484375 2.796875 -4.710938 2.234375 -6.140625 C 1.679688 -7.578125 1.40625 -9.207031 1.40625 -11.03125 Z M 14.296875 -16.703125 C 12.660156 -16.703125 11.40625 -16.234375 10.53125 -15.296875 C 9.65625 -14.359375 9.21875 -12.9375 9.21875 -11.03125 C 9.21875 -9.15625 9.625 -7.738281 10.4375 -6.78125 C 11.25 -5.832031 12.425781 -5.359375 13.96875 -5.359375 C 14.519531 -5.359375 15.015625 -5.441406 15.453125 -5.609375 C 15.890625 -5.773438 16.226562 -5.960938 16.46875 -6.171875 L 16.46875 -16.15625 C 15.863281 -16.519531 15.140625 -16.703125 14.296875 -16.703125 Z M 14.296875 -16.703125 "/></g></g></g><g fill="#ffffff" fill-opacity="1"><g transform="translate(155.427171, 128.377301)"><g><path d="M 2.21875 -8.4375 C 2.007812 -8.769531 1.8125 -9.207031 1.625 -9.75 C 1.445312 -10.300781 1.359375 -10.878906 1.359375 -11.484375 C 1.359375 -12.597656 1.613281 -13.40625 2.125 -13.90625 C 2.644531 -14.40625 3.3125 -14.65625 4.125 -14.65625 L 13.84375 -14.65625 C 14.019531 -14.320312 14.207031 -13.882812 14.40625 -13.34375 C 14.601562 -12.800781 14.703125 -12.222656 14.703125 -11.609375 C 14.703125 -10.492188 14.441406 -9.6875 13.921875 -9.1875 C 13.410156 -8.6875 12.75 -8.4375 11.9375 -8.4375 Z M 2.21875 -8.4375 "/></g></g></g><g fill="#ffffff" fill-opacity="1"><g transform="translate(171.489892, 128.377301)"><g><path d="M 27.546875 -0.1875 C 27.210938 -0.09375 26.6875 0 25.96875 0.09375 C 25.257812 0.1875 24.5625 0.234375 23.875 0.234375 C 23.175781 0.234375 22.5625 0.175781 22.03125 0.0625 C 21.5 -0.0390625 21.050781 -0.226562 20.6875 -0.5 C 20.320312 -0.769531 20.050781 -1.144531 19.875 -1.625 C 19.695312 -2.113281 19.609375 -2.753906 19.609375 -3.546875 L 19.609375 -10.625 L 10.890625 -10.625 L 10.890625 -0.1875 C 10.554688 -0.09375 10.035156 0 9.328125 0.09375 C 8.617188 0.1875 7.914062 0.234375 7.21875 0.234375 C 6.519531 0.234375 5.90625 0.175781 5.375 0.0625 C 4.84375 -0.0390625 4.394531 -0.226562 4.03125 -0.5 C 3.675781 -0.769531 3.40625 -1.144531 3.21875 -1.625 C 3.039062 -2.113281 2.953125 -2.753906 2.953125 -3.546875 L 2.953125 -27.5 C 3.285156 -27.5625 3.8125 -27.644531 4.53125 -27.75 C 5.257812 -27.851562 5.957031 -27.90625 6.625 -27.90625 C 7.320312 -27.90625 7.929688 -27.851562 8.453125 -27.75 C 8.984375 -27.644531 9.429688 -27.453125 9.796875 -27.171875 C 10.160156 -26.898438 10.429688 -26.519531 10.609375 -26.03125 C 10.796875 -25.550781 10.890625 -24.921875 10.890625 -24.140625 L 10.890625 -16.875 L 19.609375 -16.875 L 19.609375 -27.5 C 19.929688 -27.5625 20.457031 -27.644531 21.1875 -27.75 C 21.914062 -27.851562 22.613281 -27.90625 23.28125 -27.90625 C 23.976562 -27.90625 24.585938 -27.851562 25.109375 -27.75 C 25.640625 -27.644531 26.085938 -27.453125 26.453125 -27.171875 C 26.816406 -26.898438 27.085938 -26.519531 27.265625 -26.03125 C 27.453125 -25.550781 27.546875 -24.921875 27.546875 -24.140625 Z M 27.546875 -0.1875 "/></g></g></g><g fill="#ffffff" fill-opacity="1"><g transform="translate(201.98185, 128.377301)"><g><path d="M 11.796875 -4.90625 C 12.304688 -4.90625 12.867188 -4.957031 13.484375 -5.0625 C 14.109375 -5.164062 14.578125 -5.304688 14.890625 -5.484375 L 14.890625 -9.125 L 11.609375 -8.84375 C 10.765625 -8.78125 10.070312 -8.597656 9.53125 -8.296875 C 8.988281 -7.992188 8.71875 -7.539062 8.71875 -6.9375 C 8.71875 -6.332031 8.953125 -5.84375 9.421875 -5.46875 C 9.890625 -5.09375 10.679688 -4.90625 11.796875 -4.90625 Z M 11.4375 -22.734375 C 13.070312 -22.734375 14.5625 -22.566406 15.90625 -22.234375 C 17.25 -21.898438 18.394531 -21.390625 19.34375 -20.703125 C 20.300781 -20.023438 21.035156 -19.164062 21.546875 -18.125 C 22.066406 -17.082031 22.328125 -15.847656 22.328125 -14.421875 L 22.328125 -4.265625 C 22.328125 -3.472656 22.109375 -2.828125 21.671875 -2.328125 C 21.234375 -1.835938 20.707031 -1.410156 20.09375 -1.046875 C 18.132812 0.128906 15.367188 0.71875 11.796875 0.71875 C 10.191406 0.71875 8.742188 0.566406 7.453125 0.265625 C 6.171875 -0.0351562 5.066406 -0.488281 4.140625 -1.09375 C 3.222656 -1.695312 2.515625 -2.46875 2.015625 -3.40625 C 1.515625 -4.34375 1.265625 -5.429688 1.265625 -6.671875 C 1.265625 -8.753906 1.882812 -10.351562 3.125 -11.46875 C 4.363281 -12.59375 6.285156 -13.289062 8.890625 -13.5625 L 14.84375 -14.203125 L 14.84375 -14.515625 C 14.84375 -15.390625 14.457031 -16.015625 13.6875 -16.390625 C 12.914062 -16.773438 11.800781 -16.96875 10.34375 -16.96875 C 9.195312 -16.96875 8.078125 -16.847656 6.984375 -16.609375 C 5.898438 -16.367188 4.914062 -16.066406 4.03125 -15.703125 C 3.644531 -15.972656 3.3125 -16.382812 3.03125 -16.9375 C 2.757812 -17.5 2.625 -18.082031 2.625 -18.6875 C 2.625 -19.476562 2.8125 -20.109375 3.1875 -20.578125 C 3.570312 -21.046875 4.160156 -21.445312 4.953125 -21.78125 C 5.828125 -22.113281 6.859375 -22.351562 8.046875 -22.5 C 9.242188 -22.65625 10.375 -22.734375 11.4375 -22.734375 Z M 11.4375 -22.734375 "/></g></g></g><g fill="#ffffff" fill-opacity="1"><g transform="translate(226.665816, 128.377301)"><g><path d="M 10.203125 -0.046875 C 9.867188 0.015625 9.378906 0.0976562 8.734375 0.203125 C 8.085938 0.304688 7.429688 0.359375 6.765625 0.359375 C 6.097656 0.359375 5.5 0.3125 4.96875 0.21875 C 4.4375 0.132812 3.988281 -0.0390625 3.625 -0.3125 C 3.257812 -0.582031 2.976562 -0.953125 2.78125 -1.421875 C 2.59375 -1.890625 2.5 -2.503906 2.5 -3.265625 L 2.5 -29.578125 C 2.832031 -29.640625 3.320312 -29.722656 3.96875 -29.828125 C 4.625 -29.941406 5.28125 -30 5.9375 -30 C 6.601562 -30 7.203125 -29.953125 7.734375 -29.859375 C 8.265625 -29.765625 8.710938 -29.582031 9.078125 -29.3125 C 9.441406 -29.039062 9.71875 -28.671875 9.90625 -28.203125 C 10.101562 -27.734375 10.203125 -27.117188 10.203125 -26.359375 Z M 10.203125 -0.046875 "/></g></g></g><g fill="#ffffff" fill-opacity="1"><g transform="translate(239.370795, 128.377301)"><g><path d="M 10.203125 -0.046875 C 9.867188 0.015625 9.378906 0.0976562 8.734375 0.203125 C 8.085938 0.304688 7.429688 0.359375 6.765625 0.359375 C 6.097656 0.359375 5.5 0.3125 4.96875 0.21875 C 4.4375 0.132812 3.988281 -0.0390625 3.625 -0.3125 C 3.257812 -0.582031 2.976562 -0.953125 2.78125 -1.421875 C 2.59375 -1.890625 2.5 -2.503906 2.5 -3.265625 L 2.5 -29.578125 C 2.832031 -29.640625 3.320312 -29.722656 3.96875 -29.828125 C 4.625 -29.941406 5.28125 -30 5.9375 -30 C 6.601562 -30 7.203125 -29.953125 7.734375 -29.859375 C 8.265625 -29.765625 8.710938 -29.582031 9.078125 -29.3125 C 9.441406 -29.039062 9.71875 -28.671875 9.90625 -28.203125 C 10.101562 -27.734375 10.203125 -27.117188 10.203125 -26.359375 Z M 10.203125 -0.046875 "/></g></g></g><g fill="#ffffff" fill-opacity="1"><g transform="translate(252.075773, 128.377301)"><g><path d="M 14.015625 0.71875 C 12.234375 0.71875 10.578125 0.472656 9.046875 -0.015625 C 7.523438 -0.515625 6.195312 -1.265625 5.0625 -2.265625 C 3.925781 -3.265625 3.03125 -4.519531 2.375 -6.03125 C 1.726562 -7.539062 1.40625 -9.3125 1.40625 -11.34375 C 1.40625 -13.34375 1.726562 -15.0625 2.375 -16.5 C 3.03125 -17.9375 3.882812 -19.113281 4.9375 -20.03125 C 6 -20.957031 7.210938 -21.640625 8.578125 -22.078125 C 9.941406 -22.515625 11.332031 -22.734375 12.75 -22.734375 C 14.351562 -22.734375 15.8125 -22.488281 17.125 -22 C 18.445312 -21.519531 19.582031 -20.851562 20.53125 -20 C 21.488281 -19.15625 22.226562 -18.144531 22.75 -16.96875 C 23.28125 -15.789062 23.546875 -14.503906 23.546875 -13.109375 C 23.546875 -12.085938 23.257812 -11.300781 22.6875 -10.75 C 22.113281 -10.207031 21.3125 -9.859375 20.28125 -9.703125 L 9.078125 -8.03125 C 9.410156 -7.03125 10.085938 -6.28125 11.109375 -5.78125 C 12.140625 -5.28125 13.320312 -5.03125 14.65625 -5.03125 C 15.894531 -5.03125 17.066406 -5.1875 18.171875 -5.5 C 19.273438 -5.820312 20.175781 -6.195312 20.875 -6.625 C 21.351562 -6.320312 21.757812 -5.894531 22.09375 -5.34375 C 22.425781 -4.800781 22.59375 -4.226562 22.59375 -3.625 C 22.59375 -2.269531 21.957031 -1.257812 20.6875 -0.59375 C 19.71875 -0.0703125 18.628906 0.273438 17.421875 0.453125 C 16.210938 0.628906 15.078125 0.71875 14.015625 0.71875 Z M 12.75 -17.109375 C 12.019531 -17.109375 11.390625 -16.984375 10.859375 -16.734375 C 10.335938 -16.492188 9.910156 -16.1875 9.578125 -15.8125 C 9.242188 -15.4375 8.992188 -15.015625 8.828125 -14.546875 C 8.660156 -14.078125 8.5625 -13.597656 8.53125 -13.109375 L 16.296875 -14.390625 C 16.203125 -14.992188 15.863281 -15.597656 15.28125 -16.203125 C 14.707031 -16.804688 13.863281 -17.109375 12.75 -17.109375 Z M 12.75 -17.109375 "/></g></g></g><g fill="#ffffff" fill-opacity="1"><g transform="translate(276.986607, 128.377301)"><g><path d="M 10.078125 -7.578125 C 10.078125 -6.785156 10.328125 -6.222656 10.828125 -5.890625 C 11.328125 -5.566406 12.03125 -5.40625 12.9375 -5.40625 C 13.382812 -5.40625 13.847656 -5.441406 14.328125 -5.515625 C 14.816406 -5.585938 15.242188 -5.6875 15.609375 -5.8125 C 15.878906 -5.476562 16.113281 -5.101562 16.3125 -4.6875 C 16.507812 -4.28125 16.609375 -3.789062 16.609375 -3.21875 C 16.609375 -2.070312 16.175781 -1.132812 15.3125 -0.40625 C 14.445312 0.320312 12.925781 0.6875 10.75 0.6875 C 8.09375 0.6875 6.046875 0.0820312 4.609375 -1.125 C 3.171875 -2.34375 2.453125 -4.3125 2.453125 -7.03125 L 2.453125 -26.453125 C 2.785156 -26.546875 3.257812 -26.644531 3.875 -26.75 C 4.5 -26.851562 5.160156 -26.90625 5.859375 -26.90625 C 7.179688 -26.90625 8.210938 -26.671875 8.953125 -26.203125 C 9.703125 -25.734375 10.078125 -24.742188 10.078125 -23.234375 L 10.078125 -20.328125 L 16.015625 -20.328125 C 16.203125 -19.992188 16.375 -19.578125 16.53125 -19.078125 C 16.695312 -18.578125 16.78125 -18.023438 16.78125 -17.421875 C 16.78125 -16.359375 16.546875 -15.59375 16.078125 -15.125 C 15.609375 -14.65625 14.984375 -14.421875 14.203125 -14.421875 L 10.078125 -14.421875 Z M 10.078125 -7.578125 "/></g></g></g></svg>