<svg xmlns="http://www.w3.org/2000/svg" xmlns:xlink="http://www.w3.org/1999/xlink" width="500" zoomAndPan="magnify" viewBox="0 0 375 374.999991" height="500" preserveAspectRatio="xMidYMid meet" version="1.0"><defs><g/></defs><g fill="#1e1e1f" fill-opacity="1"><g transform="translate(30.533002, 304.089594)"><g><path d="M 206.75 -0.390625 C 204.164062 0.390625 200.085938 1.164062 194.515625 1.9375 C 188.941406 2.71875 183.175781 3.109375 177.21875 3.109375 C 171.519531 3.109375 166.398438 2.71875 161.859375 1.9375 C 157.328125 1.164062 153.503906 -0.382812 150.390625 -2.71875 C 147.285156 -5.050781 144.890625 -8.222656 143.203125 -12.234375 C 141.523438 -16.253906 140.6875 -21.503906 140.6875 -27.984375 L 140.6875 -114.265625 C 140.6875 -124.878906 138.03125 -132.320312 132.71875 -136.59375 C 127.40625 -140.875 120.863281 -143.015625 113.09375 -143.015625 C 107.914062 -143.015625 102.992188 -142.367188 98.328125 -141.078125 C 93.660156 -139.785156 89.90625 -138.226562 87.0625 -136.40625 L 87.0625 -0.390625 C 84.46875 0.390625 80.382812 1.164062 74.8125 1.9375 C 69.238281 2.71875 63.472656 3.109375 57.515625 3.109375 C 51.816406 3.109375 46.695312 2.71875 42.15625 1.9375 C 37.625 1.164062 33.800781 -0.382812 30.6875 -2.71875 C 27.582031 -5.050781 25.1875 -8.222656 23.5 -12.234375 C 21.820312 -16.253906 20.984375 -21.503906 20.984375 -27.984375 L 20.984375 -253.390625 C 23.835938 -253.910156 28.046875 -254.625 33.609375 -255.53125 C 39.179688 -256.4375 44.816406 -256.890625 50.515625 -256.890625 C 56.222656 -256.890625 61.34375 -256.5 65.875 -255.71875 C 70.40625 -254.945312 74.222656 -253.394531 77.328125 -251.0625 C 80.441406 -248.726562 82.84375 -245.550781 84.53125 -241.53125 C 86.21875 -237.519531 87.0625 -232.273438 87.0625 -225.796875 L 87.0625 -187.71875 C 90.425781 -189.007812 95.539062 -190.492188 102.40625 -192.171875 C 109.269531 -193.859375 116.847656 -194.703125 125.140625 -194.703125 C 150.796875 -194.703125 170.8125 -188.289062 185.1875 -175.46875 C 199.5625 -162.644531 206.75 -143.535156 206.75 -118.140625 Z M 206.75 -0.390625 "/></g></g></g><g fill="#628699" fill-opacity="1"><g transform="translate(237.215761, 301.56442)"><g><path d="M 49.515625 -127.984375 C 57.316406 -127.984375 64.226562 -126.988281 70.25 -125 C 76.28125 -123.019531 81.414062 -120.316406 85.65625 -116.890625 C 89.90625 -113.472656 93.125 -109.429688 95.3125 -104.765625 C 97.507812 -100.109375 98.609375 -95.113281 98.609375 -89.78125 C 98.609375 -75.394531 90.457031 -61.695312 74.15625 -48.6875 L 47.25 -27.125 L 96.5625 -27.125 C 97.375 -25.613281 98.15625 -23.691406 98.90625 -21.359375 C 99.664062 -19.035156 100.046875 -16.503906 100.046875 -13.765625 C 100.046875 -8.835938 98.945312 -5.3125 96.75 -3.1875 C 94.5625 -1.0625 91.6875 0 88.125 0 L 16.84375 0 C 13.832031 -2.050781 11.46875 -4.6875 9.75 -7.90625 C 8.039062 -11.125 7.1875 -14.925781 7.1875 -19.3125 C 7.1875 -23.96875 8.144531 -27.90625 10.0625 -31.125 C 11.976562 -34.34375 14.101562 -36.910156 16.4375 -38.828125 L 44.78125 -63.0625 C 48.34375 -66.082031 51.285156 -68.789062 53.609375 -71.1875 C 55.941406 -73.582031 57.828125 -75.738281 59.265625 -77.65625 C 60.703125 -79.570312 61.726562 -81.351562 62.34375 -83 C 62.96875 -84.644531 63.28125 -86.21875 63.28125 -87.71875 C 63.28125 -91.550781 61.597656 -94.5625 58.234375 -96.75 C 54.878906 -98.945312 50.738281 -100.046875 45.8125 -100.046875 C 40.332031 -100.046875 35.4375 -99.1875 31.125 -97.46875 C 26.8125 -95.757812 23.21875 -93.945312 20.34375 -92.03125 C 18.007812 -93.675781 16.085938 -95.726562 14.578125 -98.1875 C 13.078125 -100.65625 12.328125 -103.535156 12.328125 -106.828125 C 12.328125 -113.953125 15.679688 -119.257812 22.390625 -122.75 C 29.097656 -126.238281 38.140625 -127.984375 49.515625 -127.984375 Z M 49.515625 -127.984375 "/></g></g></g></svg>