<?xml version="1.0" encoding="utf-8"?>
<!-- Generator: Adobe Illustrator 24.0.2, SVG Export Plug-In . SVG Version: 6.00 Build 0)  -->
<svg version="1.1" xmlns="http://www.w3.org/2000/svg" xmlns:xlink="http://www.w3.org/1999/xlink" x="0px" y="0px"
	 viewBox="0 0 24 24" style="enable-background:new 0 0 24 24;" xml:space="preserve">
<style type="text/css">
	.st0{fill:none;}
	.st1{display:none;}
	.st2{display:inline;}
	.st3{fill:none;stroke:#CECECE;stroke-width:0.1;stroke-miterlimit:10;}
	.st4{fill:#121331;}
</style>
<g id="bounding_box">
	<rect x="0" y="0" class="st0" width="24" height="24"/>
</g>
<g id="design">
	<path class="st4" d="M21.84,10.22c-0.7-4.08-4.05-7.4-8.14-8.08c-3.12-0.52-6.22,0.41-8.51,2.54s-3.44,5.14-3.15,8.27
		c0.43,4.63,4.09,8.41,8.7,8.97c0.43,0.06,0.85,0.08,1.28,0.08c1.92,0,3.76-0.54,5.39-1.59c0.34-0.22,0.44-0.68,0.22-1.03
		c-0.22-0.35-0.69-0.45-1.04-0.23c-1.68,1.09-3.64,1.53-5.67,1.28c-3.91-0.47-7.02-3.68-7.38-7.62c-0.25-2.66,0.73-5.22,2.67-7.03
		c1.95-1.81,4.59-2.6,7.25-2.16c3.47,0.57,6.31,3.39,6.91,6.85c0.18,1.04,0.17,2.08-0.01,3.09c-0.21,1.14-1.23,1.97-2.42,1.97
		c-0.62,0-1.13-0.51-1.13-1.13V8.72c0-0.41-0.34-0.75-0.75-0.75c-0.34,0-0.64,0.24-0.72,0.56C14.44,7.59,13.16,7,11.75,7
		c-2.76,0-5,2.24-5,5s2.24,5,5,5c1.49,0,2.83-0.66,3.73-1.69c0.37,1,1.33,1.72,2.46,1.72c1.91,0,3.55-1.34,3.89-3.2
		C22.05,12.65,22.06,11.43,21.84,10.22z M11.75,15.5c-1.93,0-3.5-1.57-3.5-3.5s1.57-3.5,3.5-3.5s3.5,1.57,3.5,3.5
		S13.68,15.5,11.75,15.5z"/>
</g>
</svg>
