<svg xmlns="http://www.w3.org/2000/svg" xmlns:xlink="http://www.w3.org/1999/xlink" width="250" zoomAndPan="magnify" viewBox="0 0 187.5 74.999997" height="100" preserveAspectRatio="xMidYMid meet" version="1.0"><defs><g/></defs><g fill="#ffffff" fill-opacity="1"><g transform="translate(17.722382, 45.867197)"><g><path d="M 13.125 -4.046875 C 12.882812 -3.835938 12.578125 -3.675781 12.203125 -3.5625 C 11.835938 -3.445312 11.410156 -3.390625 10.921875 -3.390625 C 10.273438 -3.390625 9.738281 -3.46875 9.3125 -3.625 C 8.882812 -3.789062 8.609375 -4.070312 8.484375 -4.46875 C 7.972656 -6.0625 7.554688 -7.347656 7.234375 -8.328125 C 6.910156 -9.316406 6.660156 -10.179688 6.484375 -10.921875 L 6.34375 -10.921875 C 6.289062 -9.859375 6.25 -8.890625 6.21875 -8.015625 C 6.195312 -7.140625 6.179688 -6.285156 6.171875 -5.453125 C 6.160156 -4.617188 6.140625 -3.773438 6.109375 -2.921875 C 6.085938 -2.078125 6.046875 -1.140625 5.984375 -0.109375 C 5.753906 -0.015625 5.445312 0.0625 5.0625 0.125 C 4.6875 0.1875 4.3125 0.21875 3.9375 0.21875 C 3.132812 0.21875 2.507812 0.09375 2.0625 -0.15625 C 1.625 -0.414062 1.40625 -0.878906 1.40625 -1.546875 L 2.203125 -15.375 C 2.335938 -15.601562 2.648438 -15.851562 3.140625 -16.125 C 3.628906 -16.394531 4.316406 -16.53125 5.203125 -16.53125 C 6.160156 -16.53125 6.910156 -16.378906 7.453125 -16.078125 C 7.992188 -15.785156 8.390625 -15.304688 8.640625 -14.640625 C 8.804688 -14.203125 8.984375 -13.703125 9.171875 -13.140625 C 9.367188 -12.585938 9.5625 -12.007812 9.75 -11.40625 C 9.9375 -10.8125 10.117188 -10.21875 10.296875 -9.625 C 10.484375 -9.039062 10.648438 -8.515625 10.796875 -8.046875 L 10.921875 -8.046875 C 11.359375 -9.566406 11.789062 -11.035156 12.21875 -12.453125 C 12.65625 -13.867188 13.054688 -15.054688 13.421875 -16.015625 C 13.691406 -16.160156 14.035156 -16.28125 14.453125 -16.375 C 14.878906 -16.476562 15.359375 -16.53125 15.890625 -16.53125 C 16.773438 -16.53125 17.492188 -16.398438 18.046875 -16.140625 C 18.609375 -15.878906 18.9375 -15.503906 19.03125 -15.015625 C 19.101562 -14.648438 19.179688 -14.09375 19.265625 -13.34375 C 19.347656 -12.59375 19.429688 -11.75 19.515625 -10.8125 C 19.609375 -9.875 19.695312 -8.878906 19.78125 -7.828125 C 19.875 -6.785156 19.960938 -5.78125 20.046875 -4.8125 C 20.128906 -3.84375 20.195312 -2.957031 20.25 -2.15625 C 20.300781 -1.351562 20.335938 -0.734375 20.359375 -0.296875 C 20.046875 -0.117188 19.722656 0.0078125 19.390625 0.09375 C 19.054688 0.175781 18.628906 0.21875 18.109375 0.21875 C 17.421875 0.21875 16.84375 0.101562 16.375 -0.125 C 15.90625 -0.363281 15.648438 -0.828125 15.609375 -1.515625 C 15.503906 -3.484375 15.4375 -5.253906 15.40625 -6.828125 C 15.382812 -8.398438 15.347656 -9.722656 15.296875 -10.796875 L 15.15625 -10.796875 C 14.976562 -10.085938 14.71875 -9.195312 14.375 -8.125 C 14.03125 -7.0625 13.613281 -5.703125 13.125 -4.046875 Z M 13.125 -4.046875 "/></g></g></g><g fill="#ffffff" fill-opacity="1"><g transform="translate(39.33392, 45.867197)"><g><path d="M 15.046875 -6.59375 C 15.046875 -5.46875 14.875 -4.46875 14.53125 -3.59375 C 14.1875 -2.71875 13.703125 -1.976562 13.078125 -1.375 C 12.453125 -0.78125 11.707031 -0.328125 10.84375 -0.015625 C 9.976562 0.285156 9.007812 0.4375 7.9375 0.4375 C 6.875 0.4375 5.90625 0.273438 5.03125 -0.046875 C 4.164062 -0.378906 3.421875 -0.847656 2.796875 -1.453125 C 2.179688 -2.054688 1.703125 -2.789062 1.359375 -3.65625 C 1.015625 -4.53125 0.84375 -5.507812 0.84375 -6.59375 C 0.84375 -7.65625 1.015625 -8.617188 1.359375 -9.484375 C 1.703125 -10.359375 2.179688 -11.097656 2.796875 -11.703125 C 3.421875 -12.304688 4.164062 -12.769531 5.03125 -13.09375 C 5.90625 -13.414062 6.875 -13.578125 7.9375 -13.578125 C 9.007812 -13.578125 9.976562 -13.410156 10.84375 -13.078125 C 11.707031 -12.742188 12.453125 -12.273438 13.078125 -11.671875 C 13.703125 -11.066406 14.1875 -10.328125 14.53125 -9.453125 C 14.875 -8.585938 15.046875 -7.632812 15.046875 -6.59375 Z M 5.5625 -6.59375 C 5.5625 -5.488281 5.769531 -4.640625 6.1875 -4.046875 C 6.613281 -3.460938 7.207031 -3.171875 7.96875 -3.171875 C 8.726562 -3.171875 9.3125 -3.46875 9.71875 -4.0625 C 10.125 -4.664062 10.328125 -5.507812 10.328125 -6.59375 C 10.328125 -7.675781 10.117188 -8.507812 9.703125 -9.09375 C 9.285156 -9.675781 8.695312 -9.96875 7.9375 -9.96875 C 7.175781 -9.96875 6.585938 -9.675781 6.171875 -9.09375 C 5.765625 -8.507812 5.5625 -7.675781 5.5625 -6.59375 Z M 5.5625 -6.59375 "/></g></g></g><g fill="#ffffff" fill-opacity="1"><g transform="translate(55.223963, 45.867197)"><g><path d="M 0.671875 -11.03125 C 0.816406 -11.71875 1.101562 -12.273438 1.53125 -12.703125 C 1.957031 -13.140625 2.488281 -13.359375 3.125 -13.359375 C 3.71875 -13.359375 4.175781 -13.210938 4.5 -12.921875 C 4.820312 -12.640625 5.179688 -12.238281 5.578125 -11.71875 L 7.3125 -9.4375 L 10.21875 -13.359375 C 11.21875 -13.359375 12.003906 -13.179688 12.578125 -12.828125 C 13.160156 -12.484375 13.453125 -12.007812 13.453125 -11.40625 C 13.453125 -11.175781 13.414062 -10.960938 13.34375 -10.765625 C 13.28125 -10.578125 13.1875 -10.382812 13.0625 -10.1875 C 12.9375 -9.988281 12.773438 -9.765625 12.578125 -9.515625 C 12.378906 -9.265625 12.144531 -8.96875 11.875 -8.625 L 10.078125 -6.609375 L 13.640625 -1.921875 C 13.546875 -1.234375 13.269531 -0.691406 12.8125 -0.296875 C 12.363281 0.0976562 11.828125 0.296875 11.203125 0.296875 C 10.515625 0.273438 9.96875 0.078125 9.5625 -0.296875 C 9.15625 -0.679688 8.757812 -1.144531 8.375 -1.6875 L 6.90625 -3.765625 L 4.140625 0.21875 C 4.054688 0.21875 3.957031 0.222656 3.84375 0.234375 C 3.738281 0.242188 3.648438 0.25 3.578125 0.25 C 2.660156 0.25 1.960938 0.0625 1.484375 -0.3125 C 1.003906 -0.695312 0.765625 -1.171875 0.765625 -1.734375 C 0.765625 -2.171875 0.863281 -2.554688 1.0625 -2.890625 C 1.269531 -3.222656 1.628906 -3.675781 2.140625 -4.25 L 4.3125 -6.78125 Z M 0.671875 -11.03125 "/></g></g></g><g fill="#ffffff" fill-opacity="1"><g transform="translate(69.405686, 45.867197)"><g><path d="M 14.421875 -0.03125 C 14.242188 0.0195312 13.957031 0.0703125 13.5625 0.125 C 13.175781 0.1875 12.773438 0.21875 12.359375 0.21875 C 11.960938 0.21875 11.601562 0.1875 11.28125 0.125 C 10.96875 0.0703125 10.703125 -0.03125 10.484375 -0.1875 C 10.273438 -0.351562 10.109375 -0.578125 9.984375 -0.859375 C 9.867188 -1.140625 9.8125 -1.503906 9.8125 -1.953125 L 9.8125 -7.96875 C 9.8125 -8.707031 9.625 -9.222656 9.25 -9.515625 C 8.882812 -9.816406 8.429688 -9.96875 7.890625 -9.96875 C 7.523438 -9.96875 7.179688 -9.921875 6.859375 -9.828125 C 6.535156 -9.742188 6.273438 -9.640625 6.078125 -9.515625 L 6.078125 -0.03125 C 5.890625 0.0195312 5.601562 0.0703125 5.21875 0.125 C 4.832031 0.1875 4.429688 0.21875 4.015625 0.21875 C 3.617188 0.21875 3.257812 0.1875 2.9375 0.125 C 2.625 0.0703125 2.359375 -0.03125 2.140625 -0.1875 C 1.921875 -0.351562 1.753906 -0.578125 1.640625 -0.859375 C 1.523438 -1.140625 1.46875 -1.503906 1.46875 -1.953125 L 1.46875 -17.671875 C 1.664062 -17.710938 1.957031 -17.765625 2.34375 -17.828125 C 2.726562 -17.890625 3.125 -17.921875 3.53125 -17.921875 C 3.925781 -17.921875 4.28125 -17.890625 4.59375 -17.828125 C 4.90625 -17.773438 5.171875 -17.664062 5.390625 -17.5 C 5.609375 -17.34375 5.773438 -17.125 5.890625 -16.84375 C 6.015625 -16.5625 6.078125 -16.195312 6.078125 -15.75 L 6.078125 -13.09375 C 6.304688 -13.1875 6.660156 -13.289062 7.140625 -13.40625 C 7.617188 -13.519531 8.148438 -13.578125 8.734375 -13.578125 C 10.515625 -13.578125 11.90625 -13.128906 12.90625 -12.234375 C 13.914062 -11.335938 14.421875 -10.003906 14.421875 -8.234375 Z M 14.421875 -0.03125 "/></g></g></g><g fill="#ffffff" fill-opacity="1"><g transform="translate(85.26861, 45.867197)"><g><path d="M 8.375 0.4375 C 7.3125 0.4375 6.320312 0.289062 5.40625 0 C 4.5 -0.300781 3.703125 -0.75 3.015625 -1.34375 C 2.335938 -1.945312 1.804688 -2.703125 1.421875 -3.609375 C 1.035156 -4.515625 0.84375 -5.570312 0.84375 -6.78125 C 0.84375 -7.96875 1.035156 -8.988281 1.421875 -9.84375 C 1.804688 -10.707031 2.316406 -11.414062 2.953125 -11.96875 C 3.585938 -12.519531 4.3125 -12.925781 5.125 -13.1875 C 5.9375 -13.445312 6.769531 -13.578125 7.625 -13.578125 C 8.570312 -13.578125 9.4375 -13.429688 10.21875 -13.140625 C 11.007812 -12.859375 11.691406 -12.460938 12.265625 -11.953125 C 12.835938 -11.453125 13.28125 -10.847656 13.59375 -10.140625 C 13.90625 -9.429688 14.0625 -8.660156 14.0625 -7.828125 C 14.0625 -7.210938 13.890625 -6.742188 13.546875 -6.421875 C 13.210938 -6.097656 12.738281 -5.890625 12.125 -5.796875 L 5.421875 -4.796875 C 5.617188 -4.203125 6.023438 -3.753906 6.640625 -3.453125 C 7.253906 -3.160156 7.957031 -3.015625 8.75 -3.015625 C 9.5 -3.015625 10.203125 -3.109375 10.859375 -3.296875 C 11.515625 -3.484375 12.050781 -3.703125 12.46875 -3.953125 C 12.757812 -3.773438 13.003906 -3.523438 13.203125 -3.203125 C 13.398438 -2.878906 13.5 -2.535156 13.5 -2.171875 C 13.5 -1.359375 13.117188 -0.753906 12.359375 -0.359375 C 11.785156 -0.046875 11.132812 0.160156 10.40625 0.265625 C 9.6875 0.378906 9.007812 0.4375 8.375 0.4375 Z M 7.625 -10.21875 C 7.1875 -10.21875 6.804688 -10.144531 6.484375 -10 C 6.171875 -9.851562 5.914062 -9.664062 5.71875 -9.4375 C 5.519531 -9.21875 5.367188 -8.96875 5.265625 -8.6875 C 5.171875 -8.40625 5.113281 -8.117188 5.09375 -7.828125 L 9.734375 -8.59375 C 9.679688 -8.957031 9.484375 -9.316406 9.140625 -9.671875 C 8.796875 -10.035156 8.289062 -10.21875 7.625 -10.21875 Z M 7.625 -10.21875 "/></g></g></g></svg>