<svg xmlns="http://www.w3.org/2000/svg" xmlns:xlink="http://www.w3.org/1999/xlink" width="250" zoomAndPan="magnify" viewBox="0 0 187.5 37.5" height="50" preserveAspectRatio="xMidYMid meet" version="1.0"><defs><g/></defs><g fill="#ffffff" fill-opacity="1"><g transform="translate(54.347472, 25.457346)"><g><path d="M 12.21875 -3.765625 C 12 -3.578125 11.710938 -3.425781 11.359375 -3.3125 C 11.015625 -3.207031 10.617188 -3.15625 10.171875 -3.15625 C 9.566406 -3.15625 9.066406 -3.226562 8.671875 -3.375 C 8.273438 -3.53125 8.015625 -3.789062 7.890625 -4.15625 C 7.421875 -5.644531 7.035156 -6.847656 6.734375 -7.765625 C 6.429688 -8.679688 6.195312 -9.484375 6.03125 -10.171875 L 5.90625 -10.171875 C 5.851562 -9.179688 5.8125 -8.273438 5.78125 -7.453125 C 5.757812 -6.640625 5.742188 -5.84375 5.734375 -5.0625 C 5.734375 -4.289062 5.71875 -3.507812 5.6875 -2.71875 C 5.664062 -1.9375 5.628906 -1.0625 5.578125 -0.09375 C 5.359375 -0.0078125 5.070312 0.0546875 4.71875 0.109375 C 4.363281 0.171875 4.007812 0.203125 3.65625 0.203125 C 2.914062 0.203125 2.335938 0.0859375 1.921875 -0.140625 C 1.515625 -0.378906 1.3125 -0.8125 1.3125 -1.4375 L 2.046875 -14.3125 C 2.179688 -14.53125 2.472656 -14.765625 2.921875 -15.015625 C 3.378906 -15.265625 4.019531 -15.390625 4.84375 -15.390625 C 5.738281 -15.390625 6.4375 -15.25 6.9375 -14.96875 C 7.445312 -14.695312 7.816406 -14.25 8.046875 -13.625 C 8.203125 -13.21875 8.367188 -12.753906 8.546875 -12.234375 C 8.722656 -11.710938 8.898438 -11.175781 9.078125 -10.625 C 9.253906 -10.070312 9.425781 -9.519531 9.59375 -8.96875 C 9.757812 -8.425781 9.910156 -7.9375 10.046875 -7.5 L 10.171875 -7.5 C 10.578125 -8.90625 10.976562 -10.269531 11.375 -11.59375 C 11.78125 -12.914062 12.148438 -14.019531 12.484375 -14.90625 C 12.742188 -15.039062 13.070312 -15.15625 13.46875 -15.25 C 13.863281 -15.34375 14.300781 -15.390625 14.78125 -15.390625 C 15.613281 -15.390625 16.289062 -15.265625 16.8125 -15.015625 C 17.332031 -14.773438 17.632812 -14.429688 17.71875 -13.984375 C 17.78125 -13.640625 17.847656 -13.117188 17.921875 -12.421875 C 18.003906 -11.722656 18.085938 -10.9375 18.171875 -10.0625 C 18.253906 -9.1875 18.335938 -8.257812 18.421875 -7.28125 C 18.503906 -6.3125 18.582031 -5.375 18.65625 -4.46875 C 18.738281 -3.570312 18.800781 -2.75 18.84375 -2 C 18.894531 -1.257812 18.929688 -0.6875 18.953125 -0.28125 C 18.660156 -0.113281 18.359375 0.00390625 18.046875 0.078125 C 17.742188 0.160156 17.347656 0.203125 16.859375 0.203125 C 16.210938 0.203125 15.671875 0.09375 15.234375 -0.125 C 14.796875 -0.34375 14.5625 -0.769531 14.53125 -1.40625 C 14.4375 -3.238281 14.375 -4.882812 14.34375 -6.34375 C 14.320312 -7.8125 14.285156 -9.046875 14.234375 -10.046875 L 14.109375 -10.046875 C 13.941406 -9.390625 13.695312 -8.5625 13.375 -7.5625 C 13.050781 -6.570312 12.664062 -5.304688 12.21875 -3.765625 Z M 12.21875 -3.765625 "/></g></g></g><g fill="#ffffff" fill-opacity="1"><g transform="translate(74.456988, 25.457346)"><g><path d="M 14 -6.125 C 14 -5.082031 13.835938 -4.15625 13.515625 -3.34375 C 13.203125 -2.53125 12.753906 -1.84375 12.171875 -1.28125 C 11.597656 -0.726562 10.90625 -0.304688 10.09375 -0.015625 C 9.28125 0.265625 8.378906 0.40625 7.390625 0.40625 C 6.398438 0.40625 5.5 0.253906 4.6875 -0.046875 C 3.882812 -0.347656 3.191406 -0.78125 2.609375 -1.34375 C 2.023438 -1.914062 1.570312 -2.601562 1.25 -3.40625 C 0.9375 -4.21875 0.78125 -5.125 0.78125 -6.125 C 0.78125 -7.125 0.9375 -8.023438 1.25 -8.828125 C 1.570312 -9.640625 2.023438 -10.328125 2.609375 -10.890625 C 3.191406 -11.453125 3.882812 -11.882812 4.6875 -12.1875 C 5.5 -12.488281 6.398438 -12.640625 7.390625 -12.640625 C 8.378906 -12.640625 9.28125 -12.484375 10.09375 -12.171875 C 10.90625 -11.859375 11.597656 -11.421875 12.171875 -10.859375 C 12.753906 -10.296875 13.203125 -9.609375 13.515625 -8.796875 C 13.835938 -7.992188 14 -7.101562 14 -6.125 Z M 5.171875 -6.125 C 5.171875 -5.101562 5.367188 -4.316406 5.765625 -3.765625 C 6.160156 -3.222656 6.710938 -2.953125 7.421875 -2.953125 C 8.128906 -2.953125 8.671875 -3.226562 9.046875 -3.78125 C 9.421875 -4.34375 9.609375 -5.125 9.609375 -6.125 C 9.609375 -7.132812 9.414062 -7.910156 9.03125 -8.453125 C 8.644531 -9.003906 8.097656 -9.28125 7.390625 -9.28125 C 6.679688 -9.28125 6.132812 -9.003906 5.75 -8.453125 C 5.363281 -7.910156 5.171875 -7.132812 5.171875 -6.125 Z M 5.171875 -6.125 "/></g></g></g><g fill="#ffffff" fill-opacity="1"><g transform="translate(89.242655, 25.457346)"><g><path d="M 0.625 -10.265625 C 0.757812 -10.910156 1.023438 -11.429688 1.421875 -11.828125 C 1.816406 -12.234375 2.3125 -12.4375 2.90625 -12.4375 C 3.457031 -12.4375 3.882812 -12.300781 4.1875 -12.03125 C 4.488281 -11.769531 4.828125 -11.394531 5.203125 -10.90625 L 6.8125 -8.78125 L 9.515625 -12.4375 C 10.441406 -12.4375 11.171875 -12.269531 11.703125 -11.9375 C 12.242188 -11.613281 12.515625 -11.175781 12.515625 -10.625 C 12.515625 -10.40625 12.484375 -10.207031 12.421875 -10.03125 C 12.367188 -9.851562 12.28125 -9.671875 12.15625 -9.484375 C 12.039062 -9.296875 11.890625 -9.082031 11.703125 -8.84375 C 11.523438 -8.613281 11.304688 -8.34375 11.046875 -8.03125 L 9.390625 -6.15625 L 12.6875 -1.796875 C 12.601562 -1.148438 12.351562 -0.640625 11.9375 -0.265625 C 11.519531 0.0976562 11.015625 0.28125 10.421875 0.28125 C 9.785156 0.257812 9.273438 0.0703125 8.890625 -0.28125 C 8.515625 -0.632812 8.148438 -1.0625 7.796875 -1.5625 L 6.4375 -3.5 L 3.859375 0.203125 C 3.773438 0.203125 3.679688 0.207031 3.578125 0.21875 C 3.484375 0.226562 3.398438 0.234375 3.328125 0.234375 C 2.472656 0.234375 1.820312 0.0546875 1.375 -0.296875 C 0.925781 -0.648438 0.703125 -1.085938 0.703125 -1.609375 C 0.703125 -2.015625 0.796875 -2.375 0.984375 -2.6875 C 1.179688 -3 1.519531 -3.425781 2 -3.96875 L 4.015625 -6.3125 Z M 0.625 -10.265625 "/></g></g></g><g fill="#ffffff" fill-opacity="1"><g transform="translate(102.438734, 25.457346)"><g><path d="M 13.421875 -0.03125 C 13.253906 0.0195312 12.988281 0.0703125 12.625 0.125 C 12.269531 0.175781 11.894531 0.203125 11.5 0.203125 C 11.132812 0.203125 10.800781 0.175781 10.5 0.125 C 10.207031 0.0703125 9.960938 -0.0234375 9.765625 -0.171875 C 9.566406 -0.328125 9.410156 -0.535156 9.296875 -0.796875 C 9.191406 -1.054688 9.140625 -1.394531 9.140625 -1.8125 L 9.140625 -7.421875 C 9.140625 -8.109375 8.960938 -8.585938 8.609375 -8.859375 C 8.265625 -9.140625 7.84375 -9.28125 7.34375 -9.28125 C 7.007812 -9.28125 6.691406 -9.238281 6.390625 -9.15625 C 6.085938 -9.070312 5.84375 -8.972656 5.65625 -8.859375 L 5.65625 -0.03125 C 5.488281 0.0195312 5.222656 0.0703125 4.859375 0.125 C 4.492188 0.175781 4.117188 0.203125 3.734375 0.203125 C 3.359375 0.203125 3.023438 0.175781 2.734375 0.125 C 2.441406 0.0703125 2.191406 -0.0234375 1.984375 -0.171875 C 1.785156 -0.328125 1.628906 -0.535156 1.515625 -0.796875 C 1.410156 -1.054688 1.359375 -1.394531 1.359375 -1.8125 L 1.359375 -16.453125 C 1.546875 -16.484375 1.816406 -16.53125 2.171875 -16.59375 C 2.535156 -16.65625 2.90625 -16.6875 3.28125 -16.6875 C 3.644531 -16.6875 3.972656 -16.660156 4.265625 -16.609375 C 4.566406 -16.554688 4.816406 -16.453125 5.015625 -16.296875 C 5.222656 -16.148438 5.378906 -15.945312 5.484375 -15.6875 C 5.597656 -15.425781 5.65625 -15.082031 5.65625 -14.65625 L 5.65625 -12.1875 C 5.875 -12.269531 6.203125 -12.363281 6.640625 -12.46875 C 7.085938 -12.582031 7.582031 -12.640625 8.125 -12.640625 C 9.789062 -12.640625 11.085938 -12.222656 12.015625 -11.390625 C 12.953125 -10.554688 13.421875 -9.316406 13.421875 -7.671875 Z M 13.421875 -0.03125 "/></g></g></g><g fill="#ffffff" fill-opacity="1"><g transform="translate(117.199172, 25.457346)"><g><path d="M 7.796875 0.40625 C 6.804688 0.40625 5.882812 0.269531 5.03125 0 C 4.1875 -0.28125 3.445312 -0.695312 2.8125 -1.25 C 2.1875 -1.8125 1.691406 -2.515625 1.328125 -3.359375 C 0.960938 -4.203125 0.78125 -5.1875 0.78125 -6.3125 C 0.78125 -7.414062 0.960938 -8.367188 1.328125 -9.171875 C 1.691406 -9.972656 2.164062 -10.628906 2.75 -11.140625 C 3.34375 -11.648438 4.015625 -12.023438 4.765625 -12.265625 C 5.523438 -12.515625 6.300781 -12.640625 7.09375 -12.640625 C 7.976562 -12.640625 8.785156 -12.503906 9.515625 -12.234375 C 10.253906 -11.960938 10.890625 -11.59375 11.421875 -11.125 C 11.953125 -10.65625 12.363281 -10.09375 12.65625 -9.4375 C 12.945312 -8.78125 13.09375 -8.066406 13.09375 -7.296875 C 13.09375 -6.722656 12.929688 -6.285156 12.609375 -5.984375 C 12.296875 -5.679688 11.851562 -5.488281 11.28125 -5.40625 L 5.046875 -4.46875 C 5.234375 -3.914062 5.613281 -3.5 6.1875 -3.21875 C 6.757812 -2.9375 7.414062 -2.796875 8.15625 -2.796875 C 8.84375 -2.796875 9.492188 -2.882812 10.109375 -3.0625 C 10.722656 -3.238281 11.222656 -3.445312 11.609375 -3.6875 C 11.878906 -3.519531 12.101562 -3.285156 12.28125 -2.984375 C 12.46875 -2.679688 12.5625 -2.359375 12.5625 -2.015625 C 12.5625 -1.265625 12.207031 -0.703125 11.5 -0.328125 C 10.96875 -0.046875 10.363281 0.144531 9.6875 0.25 C 9.019531 0.351562 8.390625 0.40625 7.796875 0.40625 Z M 7.09375 -9.515625 C 6.6875 -9.515625 6.335938 -9.445312 6.046875 -9.3125 C 5.753906 -9.175781 5.515625 -9.003906 5.328125 -8.796875 C 5.140625 -8.585938 5 -8.351562 4.90625 -8.09375 C 4.8125 -7.832031 4.757812 -7.566406 4.75 -7.296875 L 9.0625 -8 C 9.007812 -8.332031 8.820312 -8.664062 8.5 -9 C 8.1875 -9.34375 7.71875 -9.515625 7.09375 -9.515625 Z M 7.09375 -9.515625 "/></g></g></g></svg>