<svg xmlns="http://www.w3.org/2000/svg" xmlns:xlink="http://www.w3.org/1999/xlink" width="500" zoomAndPan="magnify" viewBox="0 0 375 74.999997" height="100" preserveAspectRatio="xMidYMid meet" version="1.0"><defs><g/><clipPath id="id1"><path d="M 30 33 L 43 33 L 43 45 L 30 45 Z M 30 33 " clip-rule="nonzero"/></clipPath><clipPath id="id2"><path d="M 28.550781 39.128906 L 47.109375 20.566406 L 65.671875 39.128906 L 47.109375 57.691406 Z M 28.550781 39.128906 " clip-rule="nonzero"/></clipPath><clipPath id="id3"><path d="M 28.550781 39.128906 L 47.109375 20.566406 L 65.671875 39.128906 L 47.109375 57.691406 Z M 28.550781 39.128906 " clip-rule="nonzero"/></clipPath><clipPath id="id4"><path d="M 41 43 L 53 43 L 53 56 L 41 56 Z M 41 43 " clip-rule="nonzero"/></clipPath><clipPath id="id5"><path d="M 28.550781 39.128906 L 47.109375 20.566406 L 65.671875 39.128906 L 47.109375 57.691406 Z M 28.550781 39.128906 " clip-rule="nonzero"/></clipPath><clipPath id="id6"><path d="M 28.550781 39.128906 L 47.109375 20.566406 L 65.671875 39.128906 L 47.109375 57.691406 Z M 28.550781 39.128906 " clip-rule="nonzero"/></clipPath><clipPath id="id7"><path d="M 41 22 L 53 22 L 53 35 L 41 35 Z M 41 22 " clip-rule="nonzero"/></clipPath><clipPath id="id8"><path d="M 28.550781 39.128906 L 47.109375 20.566406 L 65.671875 39.128906 L 47.109375 57.691406 Z M 28.550781 39.128906 " clip-rule="nonzero"/></clipPath><clipPath id="id9"><path d="M 28.550781 39.128906 L 47.109375 20.566406 L 65.671875 39.128906 L 47.109375 57.691406 Z M 28.550781 39.128906 " clip-rule="nonzero"/></clipPath><clipPath id="id10"><path d="M 51 33 L 64 33 L 64 45 L 51 45 Z M 51 33 " clip-rule="nonzero"/></clipPath><clipPath id="id11"><path d="M 28.550781 39.128906 L 47.109375 20.566406 L 65.671875 39.128906 L 47.109375 57.691406 Z M 28.550781 39.128906 " clip-rule="nonzero"/></clipPath><clipPath id="id12"><path d="M 28.550781 39.128906 L 47.109375 20.566406 L 65.671875 39.128906 L 47.109375 57.691406 Z M 28.550781 39.128906 " clip-rule="nonzero"/></clipPath></defs><rect x="-37.5" width="450" fill="#1f1e1e" y="-7.5" height="89.999996" fill-opacity="1"/><g fill="#ffffff" fill-opacity="1"><g transform="translate(79.154937, 34.999569)"><g><path d="M 0.96875 -8.609375 C 0.96875 -9.085938 1.109375 -9.46875 1.390625 -9.75 C 1.671875 -10.03125 2.050781 -10.171875 2.53125 -10.171875 L 8.078125 -10.171875 C 8.148438 -10.046875 8.21875 -9.878906 8.28125 -9.671875 C 8.34375 -9.472656 8.375 -9.265625 8.375 -9.046875 C 8.375 -8.617188 8.28125 -8.316406 8.09375 -8.140625 C 7.90625 -7.960938 7.660156 -7.875 7.359375 -7.875 L 3.828125 -7.875 L 3.828125 -6.3125 L 7.609375 -6.3125 C 7.679688 -6.1875 7.75 -6.023438 7.8125 -5.828125 C 7.875 -5.628906 7.90625 -5.421875 7.90625 -5.203125 C 7.90625 -4.773438 7.8125 -4.472656 7.625 -4.296875 C 7.445312 -4.117188 7.207031 -4.03125 6.90625 -4.03125 L 3.828125 -4.03125 L 3.828125 -2.265625 L 8.140625 -2.265625 C 8.210938 -2.140625 8.28125 -1.976562 8.34375 -1.78125 C 8.40625 -1.582031 8.4375 -1.367188 8.4375 -1.140625 C 8.4375 -0.710938 8.34375 -0.40625 8.15625 -0.21875 C 7.976562 -0.0390625 7.738281 0.046875 7.4375 0.046875 L 2.53125 0.046875 C 2.050781 0.046875 1.671875 -0.0859375 1.390625 -0.359375 C 1.109375 -0.640625 0.96875 -1.023438 0.96875 -1.515625 Z M 5.5 -14.28125 C 6.050781 -14.238281 6.441406 -14.109375 6.671875 -13.890625 C 6.910156 -13.671875 7.03125 -13.414062 7.03125 -13.125 C 7.03125 -12.800781 6.9375 -12.539062 6.75 -12.34375 C 6.570312 -12.15625 6.285156 -11.984375 5.890625 -11.828125 L 3.59375 -10.921875 C 3.269531 -10.992188 3.007812 -11.128906 2.8125 -11.328125 C 2.613281 -11.523438 2.515625 -11.75 2.515625 -12 C 2.515625 -12.15625 2.554688 -12.304688 2.640625 -12.453125 C 2.722656 -12.597656 2.851562 -12.710938 3.03125 -12.796875 Z M 5.5 -14.28125 "/></g></g></g><g fill="#ffffff" fill-opacity="1"><g transform="translate(92.589868, 34.999569)"><g><path d="M 5.46875 -6.15625 C 5.1875 -6.15625 4.921875 -6.109375 4.671875 -6.015625 C 4.421875 -5.929688 4.203125 -5.800781 4.015625 -5.625 C 3.835938 -5.457031 3.691406 -5.242188 3.578125 -4.984375 C 3.460938 -4.722656 3.40625 -4.421875 3.40625 -4.078125 C 3.40625 -3.378906 3.601562 -2.859375 4 -2.515625 C 4.394531 -2.171875 4.878906 -2 5.453125 -2 C 5.785156 -2 6.078125 -2.035156 6.328125 -2.109375 C 6.578125 -2.191406 6.796875 -2.273438 6.984375 -2.359375 C 7.203125 -2.203125 7.367188 -2.03125 7.484375 -1.84375 C 7.597656 -1.664062 7.65625 -1.445312 7.65625 -1.1875 C 7.65625 -0.726562 7.4375 -0.375 7 -0.125 C 6.5625 0.125 5.957031 0.25 5.1875 0.25 C 4.476562 0.25 3.835938 0.144531 3.265625 -0.0625 C 2.703125 -0.269531 2.210938 -0.5625 1.796875 -0.9375 C 1.390625 -1.3125 1.070312 -1.757812 0.84375 -2.28125 C 0.625 -2.8125 0.515625 -3.394531 0.515625 -4.03125 C 0.515625 -4.769531 0.632812 -5.414062 0.875 -5.96875 C 1.113281 -6.519531 1.441406 -6.972656 1.859375 -7.328125 C 2.273438 -7.691406 2.753906 -7.960938 3.296875 -8.140625 C 3.835938 -8.316406 4.410156 -8.40625 5.015625 -8.40625 C 5.816406 -8.40625 6.4375 -8.257812 6.875 -7.96875 C 7.3125 -7.675781 7.53125 -7.300781 7.53125 -6.84375 C 7.53125 -6.632812 7.476562 -6.4375 7.375 -6.25 C 7.28125 -6.0625 7.164062 -5.898438 7.03125 -5.765625 C 6.84375 -5.859375 6.613281 -5.945312 6.34375 -6.03125 C 6.070312 -6.113281 5.78125 -6.15625 5.46875 -6.15625 Z M 5.46875 -6.15625 "/></g></g></g><g fill="#ffffff" fill-opacity="1"><g transform="translate(105.152734, 34.999569)"><g><path d="M 9.3125 -4.078125 C 9.3125 -3.378906 9.203125 -2.757812 8.984375 -2.21875 C 8.773438 -1.675781 8.476562 -1.21875 8.09375 -0.84375 C 7.707031 -0.476562 7.242188 -0.203125 6.703125 -0.015625 C 6.171875 0.171875 5.578125 0.265625 4.921875 0.265625 C 4.253906 0.265625 3.648438 0.164062 3.109375 -0.03125 C 2.578125 -0.226562 2.117188 -0.515625 1.734375 -0.890625 C 1.347656 -1.265625 1.046875 -1.722656 0.828125 -2.265625 C 0.617188 -2.804688 0.515625 -3.410156 0.515625 -4.078125 C 0.515625 -4.734375 0.617188 -5.328125 0.828125 -5.859375 C 1.046875 -6.398438 1.347656 -6.859375 1.734375 -7.234375 C 2.117188 -7.609375 2.578125 -7.894531 3.109375 -8.09375 C 3.648438 -8.300781 4.253906 -8.40625 4.921875 -8.40625 C 5.578125 -8.40625 6.171875 -8.300781 6.703125 -8.09375 C 7.242188 -7.882812 7.707031 -7.59375 8.09375 -7.21875 C 8.476562 -6.84375 8.773438 -6.382812 8.984375 -5.84375 C 9.203125 -5.3125 9.3125 -4.722656 9.3125 -4.078125 Z M 3.4375 -4.078125 C 3.4375 -3.390625 3.566406 -2.863281 3.828125 -2.5 C 4.097656 -2.144531 4.46875 -1.96875 4.9375 -1.96875 C 5.40625 -1.96875 5.765625 -2.148438 6.015625 -2.515625 C 6.265625 -2.890625 6.390625 -3.410156 6.390625 -4.078125 C 6.390625 -4.742188 6.257812 -5.257812 6 -5.625 C 5.75 -5.988281 5.390625 -6.171875 4.921875 -6.171875 C 4.453125 -6.171875 4.085938 -5.988281 3.828125 -5.625 C 3.566406 -5.257812 3.4375 -4.742188 3.4375 -4.078125 Z M 3.4375 -4.078125 "/></g></g></g><g fill="#ffffff" fill-opacity="1"><g transform="translate(119.34234, 34.999569)"><g><path d="M 3.78125 -0.015625 C 3.65625 0.00390625 3.472656 0.0351562 3.234375 0.078125 C 2.992188 0.117188 2.75 0.140625 2.5 0.140625 C 2.25 0.140625 2.023438 0.117188 1.828125 0.078125 C 1.640625 0.046875 1.476562 -0.015625 1.34375 -0.109375 C 1.207031 -0.210938 1.101562 -0.347656 1.03125 -0.515625 C 0.957031 -0.691406 0.921875 -0.921875 0.921875 -1.203125 L 0.921875 -10.9375 C 1.046875 -10.957031 1.226562 -10.988281 1.46875 -11.03125 C 1.707031 -11.070312 1.953125 -11.09375 2.203125 -11.09375 C 2.441406 -11.09375 2.660156 -11.070312 2.859375 -11.03125 C 3.054688 -11 3.222656 -10.929688 3.359375 -10.828125 C 3.492188 -10.734375 3.597656 -10.597656 3.671875 -10.421875 C 3.742188 -10.253906 3.78125 -10.03125 3.78125 -9.75 Z M 3.78125 -0.015625 "/></g></g></g><g fill="#ffffff" fill-opacity="1"><g transform="translate(128.400167, 34.999569)"><g><path d="M 5.1875 0.265625 C 4.53125 0.265625 3.914062 0.175781 3.34375 0 C 2.78125 -0.1875 2.285156 -0.460938 1.859375 -0.828125 C 1.441406 -1.203125 1.113281 -1.671875 0.875 -2.234375 C 0.632812 -2.796875 0.515625 -3.453125 0.515625 -4.203125 C 0.515625 -4.929688 0.632812 -5.5625 0.875 -6.09375 C 1.113281 -6.625 1.429688 -7.0625 1.828125 -7.40625 C 2.222656 -7.75 2.671875 -8 3.171875 -8.15625 C 3.671875 -8.320312 4.1875 -8.40625 4.71875 -8.40625 C 5.3125 -8.40625 5.847656 -8.316406 6.328125 -8.140625 C 6.816406 -7.960938 7.238281 -7.71875 7.59375 -7.40625 C 7.945312 -7.09375 8.21875 -6.71875 8.40625 -6.28125 C 8.601562 -5.84375 8.703125 -5.363281 8.703125 -4.84375 C 8.703125 -4.46875 8.597656 -4.175781 8.390625 -3.96875 C 8.179688 -3.769531 7.882812 -3.644531 7.5 -3.59375 L 3.359375 -2.96875 C 3.484375 -2.601562 3.734375 -2.328125 4.109375 -2.140625 C 4.492188 -1.953125 4.929688 -1.859375 5.421875 -1.859375 C 5.878906 -1.859375 6.3125 -1.914062 6.71875 -2.03125 C 7.125 -2.15625 7.457031 -2.296875 7.71875 -2.453125 C 7.894531 -2.335938 8.046875 -2.175781 8.171875 -1.96875 C 8.296875 -1.769531 8.359375 -1.5625 8.359375 -1.34375 C 8.359375 -0.84375 8.125 -0.46875 7.65625 -0.21875 C 7.289062 -0.03125 6.882812 0.09375 6.4375 0.15625 C 5.988281 0.226562 5.570312 0.265625 5.1875 0.265625 Z M 4.71875 -6.328125 C 4.445312 -6.328125 4.210938 -6.28125 4.015625 -6.1875 C 3.816406 -6.101562 3.65625 -5.988281 3.53125 -5.84375 C 3.414062 -5.707031 3.328125 -5.550781 3.265625 -5.375 C 3.203125 -5.207031 3.164062 -5.03125 3.15625 -4.84375 L 6.03125 -5.3125 C 5.988281 -5.539062 5.863281 -5.765625 5.65625 -5.984375 C 5.445312 -6.210938 5.132812 -6.328125 4.71875 -6.328125 Z M 4.71875 -6.328125 "/></g></g></g><g fill="#ffffff" fill-opacity="1"><g transform="translate(141.96927, 34.999569)"><g><path d="M 7.75 -2.4375 C 7.75 -1.582031 7.429688 -0.914062 6.796875 -0.4375 C 6.160156 0.0390625 5.222656 0.28125 3.984375 0.28125 C 3.503906 0.28125 3.0625 0.242188 2.65625 0.171875 C 2.257812 0.109375 1.914062 0.0078125 1.625 -0.125 C 1.34375 -0.257812 1.117188 -0.429688 0.953125 -0.640625 C 0.796875 -0.859375 0.71875 -1.113281 0.71875 -1.40625 C 0.71875 -1.675781 0.773438 -1.898438 0.890625 -2.078125 C 1.003906 -2.265625 1.140625 -2.421875 1.296875 -2.546875 C 1.617188 -2.367188 1.988281 -2.207031 2.40625 -2.0625 C 2.820312 -1.925781 3.304688 -1.859375 3.859375 -1.859375 C 4.203125 -1.859375 4.46875 -1.910156 4.65625 -2.015625 C 4.84375 -2.117188 4.9375 -2.253906 4.9375 -2.421875 C 4.9375 -2.578125 4.867188 -2.695312 4.734375 -2.78125 C 4.597656 -2.875 4.375 -2.945312 4.0625 -3 L 3.5625 -3.109375 C 2.582031 -3.296875 1.851562 -3.59375 1.375 -4 C 0.90625 -4.40625 0.671875 -4.988281 0.671875 -5.75 C 0.671875 -6.164062 0.757812 -6.539062 0.9375 -6.875 C 1.113281 -7.21875 1.363281 -7.5 1.6875 -7.71875 C 2.019531 -7.945312 2.410156 -8.117188 2.859375 -8.234375 C 3.316406 -8.359375 3.816406 -8.421875 4.359375 -8.421875 C 4.773438 -8.421875 5.164062 -8.390625 5.53125 -8.328125 C 5.894531 -8.265625 6.207031 -8.171875 6.46875 -8.046875 C 6.738281 -7.929688 6.953125 -7.773438 7.109375 -7.578125 C 7.265625 -7.378906 7.34375 -7.144531 7.34375 -6.875 C 7.34375 -6.625 7.296875 -6.40625 7.203125 -6.21875 C 7.109375 -6.03125 6.988281 -5.875 6.84375 -5.75 C 6.757812 -5.8125 6.625 -5.875 6.4375 -5.9375 C 6.257812 -6 6.0625 -6.050781 5.84375 -6.09375 C 5.632812 -6.144531 5.421875 -6.1875 5.203125 -6.21875 C 4.992188 -6.257812 4.796875 -6.28125 4.609375 -6.28125 C 4.242188 -6.28125 3.957031 -6.238281 3.75 -6.15625 C 3.550781 -6.070312 3.453125 -5.9375 3.453125 -5.75 C 3.453125 -5.632812 3.507812 -5.535156 3.625 -5.453125 C 3.738281 -5.378906 3.953125 -5.304688 4.265625 -5.234375 L 4.78125 -5.125 C 5.851562 -4.875 6.613281 -4.53125 7.0625 -4.09375 C 7.519531 -3.664062 7.75 -3.113281 7.75 -2.4375 Z M 7.75 -2.4375 "/></g></g></g><g fill="#ffffff" fill-opacity="1"><g transform="translate(162.298633, 34.999569)"><g><path d="M 8.234375 -10.171875 C 8.316406 -10.046875 8.390625 -9.878906 8.453125 -9.671875 C 8.515625 -9.460938 8.546875 -9.25 8.546875 -9.03125 C 8.546875 -8.59375 8.453125 -8.28125 8.265625 -8.09375 C 8.078125 -7.90625 7.828125 -7.8125 7.515625 -7.8125 L 4 -7.8125 L 4 -5.921875 L 7.671875 -5.921875 C 7.753906 -5.796875 7.828125 -5.632812 7.890625 -5.4375 C 7.953125 -5.238281 7.984375 -5.023438 7.984375 -4.796875 C 7.984375 -4.367188 7.890625 -4.0625 7.703125 -3.875 C 7.523438 -3.695312 7.28125 -3.609375 6.96875 -3.609375 L 4.03125 -3.609375 L 4.03125 -0.0625 C 3.90625 -0.03125 3.707031 0 3.4375 0.03125 C 3.175781 0.0625 2.921875 0.078125 2.671875 0.078125 C 2.410156 0.078125 2.179688 0.0546875 1.984375 0.015625 C 1.785156 -0.015625 1.617188 -0.078125 1.484375 -0.171875 C 1.359375 -0.273438 1.257812 -0.414062 1.1875 -0.59375 C 1.125 -0.78125 1.09375 -1.019531 1.09375 -1.3125 L 1.09375 -8.609375 C 1.09375 -9.085938 1.234375 -9.46875 1.515625 -9.75 C 1.796875 -10.03125 2.175781 -10.171875 2.65625 -10.171875 Z M 8.234375 -10.171875 "/></g></g></g><g fill="#ffffff" fill-opacity="1"><g transform="translate(175.565864, 34.999569)"><g><path d="M 9.3125 -4.078125 C 9.3125 -3.378906 9.203125 -2.757812 8.984375 -2.21875 C 8.773438 -1.675781 8.476562 -1.21875 8.09375 -0.84375 C 7.707031 -0.476562 7.242188 -0.203125 6.703125 -0.015625 C 6.171875 0.171875 5.578125 0.265625 4.921875 0.265625 C 4.253906 0.265625 3.648438 0.164062 3.109375 -0.03125 C 2.578125 -0.226562 2.117188 -0.515625 1.734375 -0.890625 C 1.347656 -1.265625 1.046875 -1.722656 0.828125 -2.265625 C 0.617188 -2.804688 0.515625 -3.410156 0.515625 -4.078125 C 0.515625 -4.734375 0.617188 -5.328125 0.828125 -5.859375 C 1.046875 -6.398438 1.347656 -6.859375 1.734375 -7.234375 C 2.117188 -7.609375 2.578125 -7.894531 3.109375 -8.09375 C 3.648438 -8.300781 4.253906 -8.40625 4.921875 -8.40625 C 5.578125 -8.40625 6.171875 -8.300781 6.703125 -8.09375 C 7.242188 -7.882812 7.707031 -7.59375 8.09375 -7.21875 C 8.476562 -6.84375 8.773438 -6.382812 8.984375 -5.84375 C 9.203125 -5.3125 9.3125 -4.722656 9.3125 -4.078125 Z M 3.4375 -4.078125 C 3.4375 -3.390625 3.566406 -2.863281 3.828125 -2.5 C 4.097656 -2.144531 4.46875 -1.96875 4.9375 -1.96875 C 5.40625 -1.96875 5.765625 -2.148438 6.015625 -2.515625 C 6.265625 -2.890625 6.390625 -3.410156 6.390625 -4.078125 C 6.390625 -4.742188 6.257812 -5.257812 6 -5.625 C 5.75 -5.988281 5.390625 -6.171875 4.921875 -6.171875 C 4.453125 -6.171875 4.085938 -5.988281 3.828125 -5.625 C 3.566406 -5.257812 3.4375 -4.742188 3.4375 -4.078125 Z M 3.4375 -4.078125 "/></g></g></g><g fill="#ffffff" fill-opacity="1"><g transform="translate(189.755471, 34.999569)"><g><path d="M 6.046875 -5.171875 C 6.046875 -5.515625 5.945312 -5.765625 5.75 -5.921875 C 5.550781 -6.085938 5.285156 -6.171875 4.953125 -6.171875 C 4.722656 -6.171875 4.5 -6.140625 4.28125 -6.078125 C 4.0625 -6.023438 3.875 -5.945312 3.71875 -5.84375 L 3.71875 -0.015625 C 3.613281 0.015625 3.441406 0.046875 3.203125 0.078125 C 2.960938 0.117188 2.710938 0.140625 2.453125 0.140625 C 2.203125 0.140625 1.976562 0.117188 1.78125 0.078125 C 1.59375 0.046875 1.429688 -0.015625 1.296875 -0.109375 C 1.160156 -0.210938 1.054688 -0.347656 0.984375 -0.515625 C 0.910156 -0.691406 0.875 -0.921875 0.875 -1.203125 L 0.875 -6.25 C 0.875 -6.550781 0.9375 -6.796875 1.0625 -6.984375 C 1.195312 -7.171875 1.375 -7.34375 1.59375 -7.5 C 1.976562 -7.769531 2.457031 -7.988281 3.03125 -8.15625 C 3.601562 -8.320312 4.242188 -8.40625 4.953125 -8.40625 C 6.210938 -8.40625 7.179688 -8.128906 7.859375 -7.578125 C 8.546875 -7.023438 8.890625 -6.253906 8.890625 -5.265625 L 8.890625 -0.015625 C 8.773438 0.015625 8.597656 0.046875 8.359375 0.078125 C 8.117188 0.117188 7.875 0.140625 7.625 0.140625 C 7.375 0.140625 7.148438 0.117188 6.953125 0.078125 C 6.753906 0.046875 6.585938 -0.015625 6.453125 -0.109375 C 6.328125 -0.210938 6.226562 -0.347656 6.15625 -0.515625 C 6.082031 -0.691406 6.046875 -0.921875 6.046875 -1.203125 Z M 6.046875 -5.171875 "/></g></g></g><g fill="#ffffff" fill-opacity="1"><g transform="translate(203.894766, 34.999569)"><g><path d="M 0.515625 -4.078125 C 0.515625 -4.816406 0.625 -5.457031 0.84375 -6 C 1.070312 -6.539062 1.382812 -6.988281 1.78125 -7.34375 C 2.1875 -7.707031 2.65625 -7.972656 3.1875 -8.140625 C 3.71875 -8.316406 4.289062 -8.40625 4.90625 -8.40625 C 5.125 -8.40625 5.335938 -8.382812 5.546875 -8.34375 C 5.765625 -8.3125 5.941406 -8.265625 6.078125 -8.203125 L 6.078125 -10.921875 C 6.191406 -10.953125 6.367188 -10.988281 6.609375 -11.03125 C 6.859375 -11.070312 7.109375 -11.09375 7.359375 -11.09375 C 7.609375 -11.09375 7.832031 -11.070312 8.03125 -11.03125 C 8.226562 -11 8.390625 -10.929688 8.515625 -10.828125 C 8.648438 -10.734375 8.75 -10.597656 8.8125 -10.421875 C 8.882812 -10.253906 8.921875 -10.03125 8.921875 -9.75 L 8.921875 -1.796875 C 8.921875 -1.265625 8.675781 -0.84375 8.1875 -0.53125 C 7.863281 -0.320312 7.441406 -0.140625 6.921875 0.015625 C 6.410156 0.179688 5.820312 0.265625 5.15625 0.265625 C 4.425781 0.265625 3.769531 0.164062 3.1875 -0.03125 C 2.613281 -0.226562 2.128906 -0.519531 1.734375 -0.90625 C 1.335938 -1.289062 1.035156 -1.75 0.828125 -2.28125 C 0.617188 -2.8125 0.515625 -3.410156 0.515625 -4.078125 Z M 5.28125 -6.171875 C 4.675781 -6.171875 4.210938 -6 3.890625 -5.65625 C 3.566406 -5.3125 3.40625 -4.785156 3.40625 -4.078125 C 3.40625 -3.378906 3.554688 -2.851562 3.859375 -2.5 C 4.160156 -2.15625 4.597656 -1.984375 5.171875 -1.984375 C 5.367188 -1.984375 5.546875 -2.015625 5.703125 -2.078125 C 5.867188 -2.140625 6 -2.207031 6.09375 -2.28125 L 6.09375 -5.96875 C 5.863281 -6.101562 5.59375 -6.171875 5.28125 -6.171875 Z M 5.28125 -6.171875 "/></g></g></g><g fill="#ffffff" fill-opacity="1"><g transform="translate(218.084373, 34.999569)"><g><path d="M 4.359375 -1.8125 C 4.546875 -1.8125 4.753906 -1.832031 4.984375 -1.875 C 5.222656 -1.914062 5.394531 -1.96875 5.5 -2.03125 L 5.5 -3.375 L 4.296875 -3.265625 C 3.984375 -3.242188 3.722656 -3.175781 3.515625 -3.0625 C 3.316406 -2.957031 3.21875 -2.789062 3.21875 -2.5625 C 3.21875 -2.34375 3.304688 -2.160156 3.484375 -2.015625 C 3.660156 -1.878906 3.953125 -1.8125 4.359375 -1.8125 Z M 4.234375 -8.40625 C 4.835938 -8.40625 5.382812 -8.34375 5.875 -8.21875 C 6.375 -8.09375 6.800781 -7.90625 7.15625 -7.65625 C 7.507812 -7.40625 7.78125 -7.085938 7.96875 -6.703125 C 8.15625 -6.316406 8.25 -5.863281 8.25 -5.34375 L 8.25 -1.578125 C 8.25 -1.285156 8.164062 -1.046875 8 -0.859375 C 7.84375 -0.679688 7.65625 -0.523438 7.4375 -0.390625 C 6.707031 0.046875 5.679688 0.265625 4.359375 0.265625 C 3.765625 0.265625 3.226562 0.207031 2.75 0.09375 C 2.28125 -0.0078125 1.875 -0.171875 1.53125 -0.390625 C 1.195312 -0.617188 0.9375 -0.90625 0.75 -1.25 C 0.5625 -1.601562 0.46875 -2.007812 0.46875 -2.46875 C 0.46875 -3.238281 0.695312 -3.828125 1.15625 -4.234375 C 1.613281 -4.648438 2.328125 -4.910156 3.296875 -5.015625 L 5.484375 -5.25 L 5.484375 -5.375 C 5.484375 -5.695312 5.335938 -5.925781 5.046875 -6.0625 C 4.765625 -6.207031 4.359375 -6.28125 3.828125 -6.28125 C 3.398438 -6.28125 2.984375 -6.234375 2.578125 -6.140625 C 2.179688 -6.046875 1.820312 -5.9375 1.5 -5.8125 C 1.351562 -5.90625 1.226562 -6.054688 1.125 -6.265625 C 1.019531 -6.472656 0.96875 -6.6875 0.96875 -6.90625 C 0.96875 -7.195312 1.035156 -7.429688 1.171875 -7.609375 C 1.316406 -7.785156 1.535156 -7.9375 1.828125 -8.0625 C 2.148438 -8.175781 2.53125 -8.257812 2.96875 -8.3125 C 3.414062 -8.375 3.835938 -8.40625 4.234375 -8.40625 Z M 4.234375 -8.40625 "/></g></g></g><g fill="#ffffff" fill-opacity="1"><g transform="translate(231.56962, 34.999569)"><g><path d="M 4.78125 -8.40625 C 5.238281 -8.40625 5.6875 -8.335938 6.125 -8.203125 C 6.570312 -8.078125 6.957031 -7.890625 7.28125 -7.640625 C 7.613281 -7.859375 7.988281 -8.039062 8.40625 -8.1875 C 8.832031 -8.332031 9.34375 -8.40625 9.9375 -8.40625 C 10.363281 -8.40625 10.78125 -8.347656 11.1875 -8.234375 C 11.59375 -8.128906 11.953125 -7.953125 12.265625 -7.703125 C 12.585938 -7.460938 12.84375 -7.144531 13.03125 -6.75 C 13.226562 -6.351562 13.328125 -5.867188 13.328125 -5.296875 L 13.328125 -0.015625 C 13.210938 0.015625 13.035156 0.046875 12.796875 0.078125 C 12.554688 0.117188 12.304688 0.140625 12.046875 0.140625 C 11.804688 0.140625 11.585938 0.117188 11.390625 0.078125 C 11.191406 0.046875 11.023438 -0.015625 10.890625 -0.109375 C 10.753906 -0.210938 10.648438 -0.347656 10.578125 -0.515625 C 10.503906 -0.691406 10.46875 -0.921875 10.46875 -1.203125 L 10.46875 -5.21875 C 10.46875 -5.550781 10.375 -5.789062 10.1875 -5.9375 C 10 -6.09375 9.742188 -6.171875 9.421875 -6.171875 C 9.253906 -6.171875 9.082031 -6.132812 8.90625 -6.0625 C 8.726562 -5.988281 8.597656 -5.914062 8.515625 -5.84375 C 8.523438 -5.789062 8.53125 -5.742188 8.53125 -5.703125 C 8.53125 -5.671875 8.53125 -5.640625 8.53125 -5.609375 L 8.53125 -0.015625 C 8.40625 0.015625 8.222656 0.046875 7.984375 0.078125 C 7.742188 0.117188 7.5 0.140625 7.25 0.140625 C 7 0.140625 6.773438 0.117188 6.578125 0.078125 C 6.390625 0.046875 6.226562 -0.015625 6.09375 -0.109375 C 5.957031 -0.210938 5.851562 -0.347656 5.78125 -0.515625 C 5.707031 -0.691406 5.671875 -0.921875 5.671875 -1.203125 L 5.671875 -5.21875 C 5.671875 -5.550781 5.566406 -5.789062 5.359375 -5.9375 C 5.148438 -6.09375 4.898438 -6.171875 4.609375 -6.171875 C 4.410156 -6.171875 4.238281 -6.140625 4.09375 -6.078125 C 3.945312 -6.015625 3.820312 -5.957031 3.71875 -5.90625 L 3.71875 -0.015625 C 3.613281 0.015625 3.441406 0.046875 3.203125 0.078125 C 2.960938 0.117188 2.710938 0.140625 2.453125 0.140625 C 2.203125 0.140625 1.976562 0.117188 1.78125 0.078125 C 1.59375 0.046875 1.429688 -0.015625 1.296875 -0.109375 C 1.160156 -0.210938 1.054688 -0.347656 0.984375 -0.515625 C 0.910156 -0.691406 0.875 -0.921875 0.875 -1.203125 L 0.875 -6.28125 C 0.875 -6.582031 0.9375 -6.820312 1.0625 -7 C 1.195312 -7.175781 1.375 -7.34375 1.59375 -7.5 C 1.976562 -7.769531 2.453125 -7.988281 3.015625 -8.15625 C 3.578125 -8.320312 4.164062 -8.40625 4.78125 -8.40625 Z M 4.78125 -8.40625 "/></g></g></g><g fill="#ffffff" fill-opacity="1"><g transform="translate(250.119555, 34.999569)"><g><path d="M 5.1875 0.265625 C 4.53125 0.265625 3.914062 0.175781 3.34375 0 C 2.78125 -0.1875 2.285156 -0.460938 1.859375 -0.828125 C 1.441406 -1.203125 1.113281 -1.671875 0.875 -2.234375 C 0.632812 -2.796875 0.515625 -3.453125 0.515625 -4.203125 C 0.515625 -4.929688 0.632812 -5.5625 0.875 -6.09375 C 1.113281 -6.625 1.429688 -7.0625 1.828125 -7.40625 C 2.222656 -7.75 2.671875 -8 3.171875 -8.15625 C 3.671875 -8.320312 4.1875 -8.40625 4.71875 -8.40625 C 5.3125 -8.40625 5.847656 -8.316406 6.328125 -8.140625 C 6.816406 -7.960938 7.238281 -7.71875 7.59375 -7.40625 C 7.945312 -7.09375 8.21875 -6.71875 8.40625 -6.28125 C 8.601562 -5.84375 8.703125 -5.363281 8.703125 -4.84375 C 8.703125 -4.46875 8.597656 -4.175781 8.390625 -3.96875 C 8.179688 -3.769531 7.882812 -3.644531 7.5 -3.59375 L 3.359375 -2.96875 C 3.484375 -2.601562 3.734375 -2.328125 4.109375 -2.140625 C 4.492188 -1.953125 4.929688 -1.859375 5.421875 -1.859375 C 5.878906 -1.859375 6.3125 -1.914062 6.71875 -2.03125 C 7.125 -2.15625 7.457031 -2.296875 7.71875 -2.453125 C 7.894531 -2.335938 8.046875 -2.175781 8.171875 -1.96875 C 8.296875 -1.769531 8.359375 -1.5625 8.359375 -1.34375 C 8.359375 -0.84375 8.125 -0.46875 7.65625 -0.21875 C 7.289062 -0.03125 6.882812 0.09375 6.4375 0.15625 C 5.988281 0.226562 5.570312 0.265625 5.1875 0.265625 Z M 4.71875 -6.328125 C 4.445312 -6.328125 4.210938 -6.28125 4.015625 -6.1875 C 3.816406 -6.101562 3.65625 -5.988281 3.53125 -5.84375 C 3.414062 -5.707031 3.328125 -5.550781 3.265625 -5.375 C 3.203125 -5.207031 3.164062 -5.03125 3.15625 -4.84375 L 6.03125 -5.3125 C 5.988281 -5.539062 5.863281 -5.765625 5.65625 -5.984375 C 5.445312 -6.210938 5.132812 -6.328125 4.71875 -6.328125 Z M 4.71875 -6.328125 "/></g></g></g><g fill="#ffffff" fill-opacity="1"><g transform="translate(263.688663, 34.999569)"><g><path d="M 6.046875 -5.171875 C 6.046875 -5.515625 5.945312 -5.765625 5.75 -5.921875 C 5.550781 -6.085938 5.285156 -6.171875 4.953125 -6.171875 C 4.722656 -6.171875 4.5 -6.140625 4.28125 -6.078125 C 4.0625 -6.023438 3.875 -5.945312 3.71875 -5.84375 L 3.71875 -0.015625 C 3.613281 0.015625 3.441406 0.046875 3.203125 0.078125 C 2.960938 0.117188 2.710938 0.140625 2.453125 0.140625 C 2.203125 0.140625 1.976562 0.117188 1.78125 0.078125 C 1.59375 0.046875 1.429688 -0.015625 1.296875 -0.109375 C 1.160156 -0.210938 1.054688 -0.347656 0.984375 -0.515625 C 0.910156 -0.691406 0.875 -0.921875 0.875 -1.203125 L 0.875 -6.25 C 0.875 -6.550781 0.9375 -6.796875 1.0625 -6.984375 C 1.195312 -7.171875 1.375 -7.34375 1.59375 -7.5 C 1.976562 -7.769531 2.457031 -7.988281 3.03125 -8.15625 C 3.601562 -8.320312 4.242188 -8.40625 4.953125 -8.40625 C 6.210938 -8.40625 7.179688 -8.128906 7.859375 -7.578125 C 8.546875 -7.023438 8.890625 -6.253906 8.890625 -5.265625 L 8.890625 -0.015625 C 8.773438 0.015625 8.597656 0.046875 8.359375 0.078125 C 8.117188 0.117188 7.875 0.140625 7.625 0.140625 C 7.375 0.140625 7.148438 0.117188 6.953125 0.078125 C 6.753906 0.046875 6.585938 -0.015625 6.453125 -0.109375 C 6.328125 -0.210938 6.226562 -0.347656 6.15625 -0.515625 C 6.082031 -0.691406 6.046875 -0.921875 6.046875 -1.203125 Z M 6.046875 -5.171875 "/></g></g></g><g fill="#ffffff" fill-opacity="1"><g transform="translate(277.827957, 34.999569)"><g><path d="M 3.71875 -2.796875 C 3.71875 -2.503906 3.8125 -2.296875 4 -2.171875 C 4.1875 -2.054688 4.445312 -2 4.78125 -2 C 4.945312 -2 5.117188 -2.007812 5.296875 -2.03125 C 5.484375 -2.0625 5.640625 -2.097656 5.765625 -2.140625 C 5.867188 -2.023438 5.957031 -1.890625 6.03125 -1.734375 C 6.101562 -1.585938 6.140625 -1.40625 6.140625 -1.1875 C 6.140625 -0.757812 5.976562 -0.410156 5.65625 -0.140625 C 5.34375 0.117188 4.785156 0.25 3.984375 0.25 C 2.992188 0.25 2.234375 0.0234375 1.703125 -0.421875 C 1.171875 -0.867188 0.90625 -1.59375 0.90625 -2.59375 L 0.90625 -9.78125 C 1.03125 -9.8125 1.207031 -9.847656 1.4375 -9.890625 C 1.664062 -9.929688 1.910156 -9.953125 2.171875 -9.953125 C 2.660156 -9.953125 3.039062 -9.863281 3.3125 -9.6875 C 3.582031 -9.519531 3.71875 -9.15625 3.71875 -8.59375 L 3.71875 -7.515625 L 5.921875 -7.515625 C 5.992188 -7.390625 6.054688 -7.234375 6.109375 -7.046875 C 6.171875 -6.867188 6.203125 -6.664062 6.203125 -6.4375 C 6.203125 -6.050781 6.113281 -5.769531 5.9375 -5.59375 C 5.769531 -5.425781 5.539062 -5.34375 5.25 -5.34375 L 3.71875 -5.34375 Z M 3.71875 -2.796875 "/></g></g></g><g fill="#ffffff" fill-opacity="1"><g transform="translate(288.898246, 34.999569)"><g><path d="M 4.359375 -1.8125 C 4.546875 -1.8125 4.753906 -1.832031 4.984375 -1.875 C 5.222656 -1.914062 5.394531 -1.96875 5.5 -2.03125 L 5.5 -3.375 L 4.296875 -3.265625 C 3.984375 -3.242188 3.722656 -3.175781 3.515625 -3.0625 C 3.316406 -2.957031 3.21875 -2.789062 3.21875 -2.5625 C 3.21875 -2.34375 3.304688 -2.160156 3.484375 -2.015625 C 3.660156 -1.878906 3.953125 -1.8125 4.359375 -1.8125 Z M 4.234375 -8.40625 C 4.835938 -8.40625 5.382812 -8.34375 5.875 -8.21875 C 6.375 -8.09375 6.800781 -7.90625 7.15625 -7.65625 C 7.507812 -7.40625 7.78125 -7.085938 7.96875 -6.703125 C 8.15625 -6.316406 8.25 -5.863281 8.25 -5.34375 L 8.25 -1.578125 C 8.25 -1.285156 8.164062 -1.046875 8 -0.859375 C 7.84375 -0.679688 7.65625 -0.523438 7.4375 -0.390625 C 6.707031 0.046875 5.679688 0.265625 4.359375 0.265625 C 3.765625 0.265625 3.226562 0.207031 2.75 0.09375 C 2.28125 -0.0078125 1.875 -0.171875 1.53125 -0.390625 C 1.195312 -0.617188 0.9375 -0.90625 0.75 -1.25 C 0.5625 -1.601562 0.46875 -2.007812 0.46875 -2.46875 C 0.46875 -3.238281 0.695312 -3.828125 1.15625 -4.234375 C 1.613281 -4.648438 2.328125 -4.910156 3.296875 -5.015625 L 5.484375 -5.25 L 5.484375 -5.375 C 5.484375 -5.695312 5.335938 -5.925781 5.046875 -6.0625 C 4.765625 -6.207031 4.359375 -6.28125 3.828125 -6.28125 C 3.398438 -6.28125 2.984375 -6.234375 2.578125 -6.140625 C 2.179688 -6.046875 1.820312 -5.9375 1.5 -5.8125 C 1.351562 -5.90625 1.226562 -6.054688 1.125 -6.265625 C 1.019531 -6.472656 0.96875 -6.6875 0.96875 -6.90625 C 0.96875 -7.195312 1.035156 -7.429688 1.171875 -7.609375 C 1.316406 -7.785156 1.535156 -7.9375 1.828125 -8.0625 C 2.148438 -8.175781 2.53125 -8.257812 2.96875 -8.3125 C 3.414062 -8.375 3.835938 -8.40625 4.234375 -8.40625 Z M 4.234375 -8.40625 "/></g></g></g><g fill="#ffffff" fill-opacity="1"><g transform="translate(302.383493, 34.999569)"><g><path d="M 3.78125 -0.015625 C 3.65625 0.00390625 3.472656 0.0351562 3.234375 0.078125 C 2.992188 0.117188 2.75 0.140625 2.5 0.140625 C 2.25 0.140625 2.023438 0.117188 1.828125 0.078125 C 1.640625 0.046875 1.476562 -0.015625 1.34375 -0.109375 C 1.207031 -0.210938 1.101562 -0.347656 1.03125 -0.515625 C 0.957031 -0.691406 0.921875 -0.921875 0.921875 -1.203125 L 0.921875 -10.9375 C 1.046875 -10.957031 1.226562 -10.988281 1.46875 -11.03125 C 1.707031 -11.070312 1.953125 -11.09375 2.203125 -11.09375 C 2.441406 -11.09375 2.660156 -11.070312 2.859375 -11.03125 C 3.054688 -11 3.222656 -10.929688 3.359375 -10.828125 C 3.492188 -10.734375 3.597656 -10.597656 3.671875 -10.421875 C 3.742188 -10.253906 3.78125 -10.03125 3.78125 -9.75 Z M 3.78125 -0.015625 "/></g></g></g><g fill="#ffffff" fill-opacity="1"><g transform="translate(311.441325, 34.999569)"><g><path d="M 5.1875 0.265625 C 4.53125 0.265625 3.914062 0.175781 3.34375 0 C 2.78125 -0.1875 2.285156 -0.460938 1.859375 -0.828125 C 1.441406 -1.203125 1.113281 -1.671875 0.875 -2.234375 C 0.632812 -2.796875 0.515625 -3.453125 0.515625 -4.203125 C 0.515625 -4.929688 0.632812 -5.5625 0.875 -6.09375 C 1.113281 -6.625 1.429688 -7.0625 1.828125 -7.40625 C 2.222656 -7.75 2.671875 -8 3.171875 -8.15625 C 3.671875 -8.320312 4.1875 -8.40625 4.71875 -8.40625 C 5.3125 -8.40625 5.847656 -8.316406 6.328125 -8.140625 C 6.816406 -7.960938 7.238281 -7.71875 7.59375 -7.40625 C 7.945312 -7.09375 8.21875 -6.71875 8.40625 -6.28125 C 8.601562 -5.84375 8.703125 -5.363281 8.703125 -4.84375 C 8.703125 -4.46875 8.597656 -4.175781 8.390625 -3.96875 C 8.179688 -3.769531 7.882812 -3.644531 7.5 -3.59375 L 3.359375 -2.96875 C 3.484375 -2.601562 3.734375 -2.328125 4.109375 -2.140625 C 4.492188 -1.953125 4.929688 -1.859375 5.421875 -1.859375 C 5.878906 -1.859375 6.3125 -1.914062 6.71875 -2.03125 C 7.125 -2.15625 7.457031 -2.296875 7.71875 -2.453125 C 7.894531 -2.335938 8.046875 -2.175781 8.171875 -1.96875 C 8.296875 -1.769531 8.359375 -1.5625 8.359375 -1.34375 C 8.359375 -0.84375 8.125 -0.46875 7.65625 -0.21875 C 7.289062 -0.03125 6.882812 0.09375 6.4375 0.15625 C 5.988281 0.226562 5.570312 0.265625 5.1875 0.265625 Z M 4.71875 -6.328125 C 4.445312 -6.328125 4.210938 -6.28125 4.015625 -6.1875 C 3.816406 -6.101562 3.65625 -5.988281 3.53125 -5.84375 C 3.414062 -5.707031 3.328125 -5.550781 3.265625 -5.375 C 3.203125 -5.207031 3.164062 -5.03125 3.15625 -4.84375 L 6.03125 -5.3125 C 5.988281 -5.539062 5.863281 -5.765625 5.65625 -5.984375 C 5.445312 -6.210938 5.132812 -6.328125 4.71875 -6.328125 Z M 4.71875 -6.328125 "/></g></g></g><g fill="#ffffff" fill-opacity="1"><g transform="translate(325.010433, 34.999569)"><g><path d="M 7.75 -2.4375 C 7.75 -1.582031 7.429688 -0.914062 6.796875 -0.4375 C 6.160156 0.0390625 5.222656 0.28125 3.984375 0.28125 C 3.503906 0.28125 3.0625 0.242188 2.65625 0.171875 C 2.257812 0.109375 1.914062 0.0078125 1.625 -0.125 C 1.34375 -0.257812 1.117188 -0.429688 0.953125 -0.640625 C 0.796875 -0.859375 0.71875 -1.113281 0.71875 -1.40625 C 0.71875 -1.675781 0.773438 -1.898438 0.890625 -2.078125 C 1.003906 -2.265625 1.140625 -2.421875 1.296875 -2.546875 C 1.617188 -2.367188 1.988281 -2.207031 2.40625 -2.0625 C 2.820312 -1.925781 3.304688 -1.859375 3.859375 -1.859375 C 4.203125 -1.859375 4.46875 -1.910156 4.65625 -2.015625 C 4.84375 -2.117188 4.9375 -2.253906 4.9375 -2.421875 C 4.9375 -2.578125 4.867188 -2.695312 4.734375 -2.78125 C 4.597656 -2.875 4.375 -2.945312 4.0625 -3 L 3.5625 -3.109375 C 2.582031 -3.296875 1.851562 -3.59375 1.375 -4 C 0.90625 -4.40625 0.671875 -4.988281 0.671875 -5.75 C 0.671875 -6.164062 0.757812 -6.539062 0.9375 -6.875 C 1.113281 -7.21875 1.363281 -7.5 1.6875 -7.71875 C 2.019531 -7.945312 2.410156 -8.117188 2.859375 -8.234375 C 3.316406 -8.359375 3.816406 -8.421875 4.359375 -8.421875 C 4.773438 -8.421875 5.164062 -8.390625 5.53125 -8.328125 C 5.894531 -8.265625 6.207031 -8.171875 6.46875 -8.046875 C 6.738281 -7.929688 6.953125 -7.773438 7.109375 -7.578125 C 7.265625 -7.378906 7.34375 -7.144531 7.34375 -6.875 C 7.34375 -6.625 7.296875 -6.40625 7.203125 -6.21875 C 7.109375 -6.03125 6.988281 -5.875 6.84375 -5.75 C 6.757812 -5.8125 6.625 -5.875 6.4375 -5.9375 C 6.257812 -6 6.0625 -6.050781 5.84375 -6.09375 C 5.632812 -6.144531 5.421875 -6.1875 5.203125 -6.21875 C 4.992188 -6.257812 4.796875 -6.28125 4.609375 -6.28125 C 4.242188 -6.28125 3.957031 -6.238281 3.75 -6.15625 C 3.550781 -6.070312 3.453125 -5.9375 3.453125 -5.75 C 3.453125 -5.632812 3.507812 -5.535156 3.625 -5.453125 C 3.738281 -5.378906 3.953125 -5.304688 4.265625 -5.234375 L 4.78125 -5.125 C 5.851562 -4.875 6.613281 -4.53125 7.0625 -4.09375 C 7.519531 -3.664062 7.75 -3.113281 7.75 -2.4375 Z M 7.75 -2.4375 "/></g></g></g><g fill="#ffffff" fill-opacity="1"><g transform="translate(132.167203, 55.547252)"><g/></g></g><g fill="#ffffff" fill-opacity="1"><g transform="translate(139.872585, 55.547252)"><g><path d="M 0.515625 -4.078125 C 0.515625 -4.816406 0.625 -5.457031 0.84375 -6 C 1.070312 -6.539062 1.382812 -6.988281 1.78125 -7.34375 C 2.1875 -7.707031 2.65625 -7.972656 3.1875 -8.140625 C 3.71875 -8.316406 4.289062 -8.40625 4.90625 -8.40625 C 5.125 -8.40625 5.335938 -8.382812 5.546875 -8.34375 C 5.765625 -8.3125 5.941406 -8.265625 6.078125 -8.203125 L 6.078125 -10.921875 C 6.191406 -10.953125 6.367188 -10.988281 6.609375 -11.03125 C 6.859375 -11.070312 7.109375 -11.09375 7.359375 -11.09375 C 7.609375 -11.09375 7.832031 -11.070312 8.03125 -11.03125 C 8.226562 -11 8.390625 -10.929688 8.515625 -10.828125 C 8.648438 -10.734375 8.75 -10.597656 8.8125 -10.421875 C 8.882812 -10.253906 8.921875 -10.03125 8.921875 -9.75 L 8.921875 -1.796875 C 8.921875 -1.265625 8.675781 -0.84375 8.1875 -0.53125 C 7.863281 -0.320312 7.441406 -0.140625 6.921875 0.015625 C 6.410156 0.179688 5.820312 0.265625 5.15625 0.265625 C 4.425781 0.265625 3.769531 0.164062 3.1875 -0.03125 C 2.613281 -0.226562 2.128906 -0.519531 1.734375 -0.90625 C 1.335938 -1.289062 1.035156 -1.75 0.828125 -2.28125 C 0.617188 -2.8125 0.515625 -3.410156 0.515625 -4.078125 Z M 5.28125 -6.171875 C 4.675781 -6.171875 4.210938 -6 3.890625 -5.65625 C 3.566406 -5.3125 3.40625 -4.785156 3.40625 -4.078125 C 3.40625 -3.378906 3.554688 -2.851562 3.859375 -2.5 C 4.160156 -2.15625 4.597656 -1.984375 5.171875 -1.984375 C 5.367188 -1.984375 5.546875 -2.015625 5.703125 -2.078125 C 5.867188 -2.140625 6 -2.207031 6.09375 -2.28125 L 6.09375 -5.96875 C 5.863281 -6.101562 5.59375 -6.171875 5.28125 -6.171875 Z M 5.28125 -6.171875 "/></g></g></g><g fill="#ffffff" fill-opacity="1"><g transform="translate(154.062221, 55.547252)"><g><path d="M 5.1875 0.265625 C 4.53125 0.265625 3.914062 0.175781 3.34375 0 C 2.78125 -0.1875 2.285156 -0.460938 1.859375 -0.828125 C 1.441406 -1.203125 1.113281 -1.671875 0.875 -2.234375 C 0.632812 -2.796875 0.515625 -3.453125 0.515625 -4.203125 C 0.515625 -4.929688 0.632812 -5.5625 0.875 -6.09375 C 1.113281 -6.625 1.429688 -7.0625 1.828125 -7.40625 C 2.222656 -7.75 2.671875 -8 3.171875 -8.15625 C 3.671875 -8.320312 4.1875 -8.40625 4.71875 -8.40625 C 5.3125 -8.40625 5.847656 -8.316406 6.328125 -8.140625 C 6.816406 -7.960938 7.238281 -7.71875 7.59375 -7.40625 C 7.945312 -7.09375 8.21875 -6.71875 8.40625 -6.28125 C 8.601562 -5.84375 8.703125 -5.363281 8.703125 -4.84375 C 8.703125 -4.46875 8.597656 -4.175781 8.390625 -3.96875 C 8.179688 -3.769531 7.882812 -3.644531 7.5 -3.59375 L 3.359375 -2.96875 C 3.484375 -2.601562 3.734375 -2.328125 4.109375 -2.140625 C 4.492188 -1.953125 4.929688 -1.859375 5.421875 -1.859375 C 5.878906 -1.859375 6.3125 -1.914062 6.71875 -2.03125 C 7.125 -2.15625 7.457031 -2.296875 7.71875 -2.453125 C 7.894531 -2.335938 8.046875 -2.175781 8.171875 -1.96875 C 8.296875 -1.769531 8.359375 -1.5625 8.359375 -1.34375 C 8.359375 -0.84375 8.125 -0.46875 7.65625 -0.21875 C 7.289062 -0.03125 6.882812 0.09375 6.4375 0.15625 C 5.988281 0.226562 5.570312 0.265625 5.1875 0.265625 Z M 4.71875 -6.328125 C 4.445312 -6.328125 4.210938 -6.28125 4.015625 -6.1875 C 3.816406 -6.101562 3.65625 -5.988281 3.53125 -5.84375 C 3.414062 -5.707031 3.328125 -5.550781 3.265625 -5.375 C 3.203125 -5.207031 3.164062 -5.03125 3.15625 -4.84375 L 6.03125 -5.3125 C 5.988281 -5.539062 5.863281 -5.765625 5.65625 -5.984375 C 5.445312 -6.210938 5.132812 -6.328125 4.71875 -6.328125 Z M 4.71875 -6.328125 "/></g></g></g><g fill="#ffffff" fill-opacity="1"><g transform="translate(167.631357, 55.547252)"><g/></g></g><g fill="#ffffff" fill-opacity="1"><g transform="translate(175.347576, 55.547252)"><g><path d="M 10.1875 -0.0625 C 10.0625 -0.03125 9.867188 0 9.609375 0.03125 C 9.347656 0.0625 9.085938 0.078125 8.828125 0.078125 C 8.566406 0.078125 8.335938 0.0546875 8.140625 0.015625 C 7.953125 -0.015625 7.789062 -0.078125 7.65625 -0.171875 C 7.519531 -0.273438 7.414062 -0.414062 7.34375 -0.59375 C 7.28125 -0.78125 7.25 -1.019531 7.25 -1.3125 L 7.25 -3.921875 L 4.03125 -3.921875 L 4.03125 -0.0625 C 3.90625 -0.03125 3.707031 0 3.4375 0.03125 C 3.175781 0.0625 2.921875 0.078125 2.671875 0.078125 C 2.410156 0.078125 2.179688 0.0546875 1.984375 0.015625 C 1.785156 -0.015625 1.617188 -0.078125 1.484375 -0.171875 C 1.359375 -0.273438 1.257812 -0.414062 1.1875 -0.59375 C 1.125 -0.78125 1.09375 -1.019531 1.09375 -1.3125 L 1.09375 -10.171875 C 1.21875 -10.191406 1.410156 -10.222656 1.671875 -10.265625 C 1.941406 -10.304688 2.203125 -10.328125 2.453125 -10.328125 C 2.710938 -10.328125 2.9375 -10.304688 3.125 -10.265625 C 3.320312 -10.222656 3.488281 -10.148438 3.625 -10.046875 C 3.757812 -9.953125 3.859375 -9.8125 3.921875 -9.625 C 3.992188 -9.445312 4.03125 -9.210938 4.03125 -8.921875 L 4.03125 -6.25 L 7.25 -6.25 L 7.25 -10.171875 C 7.375 -10.191406 7.566406 -10.222656 7.828125 -10.265625 C 8.097656 -10.304688 8.359375 -10.328125 8.609375 -10.328125 C 8.867188 -10.328125 9.09375 -10.304688 9.28125 -10.265625 C 9.476562 -10.222656 9.644531 -10.148438 9.78125 -10.046875 C 9.914062 -9.953125 10.015625 -9.8125 10.078125 -9.625 C 10.148438 -9.445312 10.1875 -9.210938 10.1875 -8.921875 Z M 10.1875 -0.0625 "/></g></g></g><g fill="#ffffff" fill-opacity="1"><g transform="translate(190.97948, 55.547252)"><g><path d="M 4.359375 -1.8125 C 4.546875 -1.8125 4.753906 -1.832031 4.984375 -1.875 C 5.222656 -1.914062 5.394531 -1.96875 5.5 -2.03125 L 5.5 -3.375 L 4.296875 -3.265625 C 3.984375 -3.242188 3.722656 -3.175781 3.515625 -3.0625 C 3.316406 -2.957031 3.21875 -2.789062 3.21875 -2.5625 C 3.21875 -2.34375 3.304688 -2.160156 3.484375 -2.015625 C 3.660156 -1.878906 3.953125 -1.8125 4.359375 -1.8125 Z M 4.234375 -8.40625 C 4.835938 -8.40625 5.382812 -8.34375 5.875 -8.21875 C 6.375 -8.09375 6.800781 -7.90625 7.15625 -7.65625 C 7.507812 -7.40625 7.78125 -7.085938 7.96875 -6.703125 C 8.15625 -6.316406 8.25 -5.863281 8.25 -5.34375 L 8.25 -1.578125 C 8.25 -1.285156 8.164062 -1.046875 8 -0.859375 C 7.84375 -0.679688 7.65625 -0.523438 7.4375 -0.390625 C 6.707031 0.046875 5.679688 0.265625 4.359375 0.265625 C 3.765625 0.265625 3.226562 0.207031 2.75 0.09375 C 2.28125 -0.0078125 1.875 -0.171875 1.53125 -0.390625 C 1.195312 -0.617188 0.9375 -0.90625 0.75 -1.25 C 0.5625 -1.601562 0.46875 -2.007812 0.46875 -2.46875 C 0.46875 -3.238281 0.695312 -3.828125 1.15625 -4.234375 C 1.613281 -4.648438 2.328125 -4.910156 3.296875 -5.015625 L 5.484375 -5.25 L 5.484375 -5.375 C 5.484375 -5.695312 5.335938 -5.925781 5.046875 -6.0625 C 4.765625 -6.207031 4.359375 -6.28125 3.828125 -6.28125 C 3.398438 -6.28125 2.984375 -6.234375 2.578125 -6.140625 C 2.179688 -6.046875 1.820312 -5.9375 1.5 -5.8125 C 1.351562 -5.90625 1.226562 -6.054688 1.125 -6.265625 C 1.019531 -6.472656 0.96875 -6.6875 0.96875 -6.90625 C 0.96875 -7.195312 1.035156 -7.429688 1.171875 -7.609375 C 1.316406 -7.785156 1.535156 -7.9375 1.828125 -8.0625 C 2.148438 -8.175781 2.53125 -8.257812 2.96875 -8.3125 C 3.414062 -8.375 3.835938 -8.40625 4.234375 -8.40625 Z M 4.234375 -8.40625 "/></g></g></g><g fill="#ffffff" fill-opacity="1"><g transform="translate(204.464755, 55.547252)"><g><path d="M 6.046875 -5.171875 C 6.046875 -5.515625 5.945312 -5.765625 5.75 -5.921875 C 5.550781 -6.085938 5.285156 -6.171875 4.953125 -6.171875 C 4.722656 -6.171875 4.5 -6.140625 4.28125 -6.078125 C 4.0625 -6.023438 3.875 -5.945312 3.71875 -5.84375 L 3.71875 -0.015625 C 3.613281 0.015625 3.441406 0.046875 3.203125 0.078125 C 2.960938 0.117188 2.710938 0.140625 2.453125 0.140625 C 2.203125 0.140625 1.976562 0.117188 1.78125 0.078125 C 1.59375 0.046875 1.429688 -0.015625 1.296875 -0.109375 C 1.160156 -0.210938 1.054688 -0.347656 0.984375 -0.515625 C 0.910156 -0.691406 0.875 -0.921875 0.875 -1.203125 L 0.875 -6.25 C 0.875 -6.550781 0.9375 -6.796875 1.0625 -6.984375 C 1.195312 -7.171875 1.375 -7.34375 1.59375 -7.5 C 1.976562 -7.769531 2.457031 -7.988281 3.03125 -8.15625 C 3.601562 -8.320312 4.242188 -8.40625 4.953125 -8.40625 C 6.210938 -8.40625 7.179688 -8.128906 7.859375 -7.578125 C 8.546875 -7.023438 8.890625 -6.253906 8.890625 -5.265625 L 8.890625 -0.015625 C 8.773438 0.015625 8.597656 0.046875 8.359375 0.078125 C 8.117188 0.117188 7.875 0.140625 7.625 0.140625 C 7.375 0.140625 7.148438 0.117188 6.953125 0.078125 C 6.753906 0.046875 6.585938 -0.015625 6.453125 -0.109375 C 6.328125 -0.210938 6.226562 -0.347656 6.15625 -0.515625 C 6.082031 -0.691406 6.046875 -0.921875 6.046875 -1.203125 Z M 6.046875 -5.171875 "/></g></g></g><g fill="#ffffff" fill-opacity="1"><g transform="translate(218.604081, 55.547252)"><g><path d="M 6.046875 -5.171875 C 6.046875 -5.515625 5.945312 -5.765625 5.75 -5.921875 C 5.550781 -6.085938 5.285156 -6.171875 4.953125 -6.171875 C 4.722656 -6.171875 4.5 -6.140625 4.28125 -6.078125 C 4.0625 -6.023438 3.875 -5.945312 3.71875 -5.84375 L 3.71875 -0.015625 C 3.613281 0.015625 3.441406 0.046875 3.203125 0.078125 C 2.960938 0.117188 2.710938 0.140625 2.453125 0.140625 C 2.203125 0.140625 1.976562 0.117188 1.78125 0.078125 C 1.59375 0.046875 1.429688 -0.015625 1.296875 -0.109375 C 1.160156 -0.210938 1.054688 -0.347656 0.984375 -0.515625 C 0.910156 -0.691406 0.875 -0.921875 0.875 -1.203125 L 0.875 -6.25 C 0.875 -6.550781 0.9375 -6.796875 1.0625 -6.984375 C 1.195312 -7.171875 1.375 -7.34375 1.59375 -7.5 C 1.976562 -7.769531 2.457031 -7.988281 3.03125 -8.15625 C 3.601562 -8.320312 4.242188 -8.40625 4.953125 -8.40625 C 6.210938 -8.40625 7.179688 -8.128906 7.859375 -7.578125 C 8.546875 -7.023438 8.890625 -6.253906 8.890625 -5.265625 L 8.890625 -0.015625 C 8.773438 0.015625 8.597656 0.046875 8.359375 0.078125 C 8.117188 0.117188 7.875 0.140625 7.625 0.140625 C 7.375 0.140625 7.148438 0.117188 6.953125 0.078125 C 6.753906 0.046875 6.585938 -0.015625 6.453125 -0.109375 C 6.328125 -0.210938 6.226562 -0.347656 6.15625 -0.515625 C 6.082031 -0.691406 6.046875 -0.921875 6.046875 -1.203125 Z M 6.046875 -5.171875 "/></g></g></g><g fill="#ffffff" fill-opacity="1"><g transform="translate(232.743404, 55.547252)"><g><path d="M 0.875 -8.03125 C 0.988281 -8.070312 1.164062 -8.109375 1.40625 -8.140625 C 1.644531 -8.171875 1.890625 -8.1875 2.140625 -8.1875 C 2.390625 -8.1875 2.613281 -8.171875 2.8125 -8.140625 C 3.007812 -8.109375 3.171875 -8.039062 3.296875 -7.9375 C 3.429688 -7.832031 3.535156 -7.691406 3.609375 -7.515625 C 3.679688 -7.347656 3.71875 -7.125 3.71875 -6.84375 L 3.71875 -3.234375 C 3.71875 -2.773438 3.828125 -2.445312 4.046875 -2.25 C 4.273438 -2.0625 4.601562 -1.96875 5.03125 -1.96875 C 5.289062 -1.96875 5.5 -1.988281 5.65625 -2.03125 C 5.820312 -2.070312 5.953125 -2.117188 6.046875 -2.171875 L 6.046875 -8.03125 C 6.148438 -8.070312 6.320312 -8.109375 6.5625 -8.140625 C 6.8125 -8.171875 7.0625 -8.1875 7.3125 -8.1875 C 7.5625 -8.1875 7.78125 -8.171875 7.96875 -8.140625 C 8.164062 -8.109375 8.332031 -8.039062 8.46875 -7.9375 C 8.601562 -7.832031 8.707031 -7.691406 8.78125 -7.515625 C 8.851562 -7.347656 8.890625 -7.125 8.890625 -6.84375 L 8.890625 -1.75 C 8.890625 -1.1875 8.65625 -0.765625 8.1875 -0.484375 C 7.800781 -0.242188 7.332031 -0.0625 6.78125 0.0625 C 6.238281 0.195312 5.648438 0.265625 5.015625 0.265625 C 4.410156 0.265625 3.851562 0.195312 3.34375 0.0625 C 2.832031 -0.0703125 2.394531 -0.273438 2.03125 -0.546875 C 1.664062 -0.828125 1.378906 -1.1875 1.171875 -1.625 C 0.972656 -2.070312 0.875 -2.609375 0.875 -3.234375 Z M 0.875 -8.03125 "/></g></g></g><g fill="#ffffff" fill-opacity="1"><g transform="translate(246.865961, 55.547252)"><g><path d="M 3.71875 -2.796875 C 3.71875 -2.503906 3.8125 -2.296875 4 -2.171875 C 4.1875 -2.054688 4.445312 -2 4.78125 -2 C 4.945312 -2 5.117188 -2.007812 5.296875 -2.03125 C 5.484375 -2.0625 5.640625 -2.097656 5.765625 -2.140625 C 5.867188 -2.023438 5.957031 -1.890625 6.03125 -1.734375 C 6.101562 -1.585938 6.140625 -1.40625 6.140625 -1.1875 C 6.140625 -0.757812 5.976562 -0.410156 5.65625 -0.140625 C 5.34375 0.117188 4.785156 0.25 3.984375 0.25 C 2.992188 0.25 2.234375 0.0234375 1.703125 -0.421875 C 1.171875 -0.867188 0.90625 -1.59375 0.90625 -2.59375 L 0.90625 -9.78125 C 1.03125 -9.8125 1.207031 -9.847656 1.4375 -9.890625 C 1.664062 -9.929688 1.910156 -9.953125 2.171875 -9.953125 C 2.660156 -9.953125 3.039062 -9.863281 3.3125 -9.6875 C 3.582031 -9.519531 3.71875 -9.15625 3.71875 -8.59375 L 3.71875 -7.515625 L 5.921875 -7.515625 C 5.992188 -7.390625 6.054688 -7.234375 6.109375 -7.046875 C 6.171875 -6.867188 6.203125 -6.664062 6.203125 -6.4375 C 6.203125 -6.050781 6.113281 -5.769531 5.9375 -5.59375 C 5.769531 -5.425781 5.539062 -5.34375 5.25 -5.34375 L 3.71875 -5.34375 Z M 3.71875 -2.796875 "/></g></g></g><g fill="#ffffff" fill-opacity="1"><g transform="translate(257.936277, 55.547252)"><g/></g></g><g fill="#ffffff" fill-opacity="1"><g transform="translate(265.652494, 55.547252)"><g><path d="M 4.03125 -0.0625 C 3.90625 -0.03125 3.707031 0 3.4375 0.03125 C 3.175781 0.0625 2.921875 0.078125 2.671875 0.078125 C 2.410156 0.078125 2.179688 0.0546875 1.984375 0.015625 C 1.785156 -0.015625 1.617188 -0.078125 1.484375 -0.171875 C 1.359375 -0.273438 1.257812 -0.414062 1.1875 -0.59375 C 1.125 -0.78125 1.09375 -1.019531 1.09375 -1.3125 L 1.09375 -10.171875 C 1.21875 -10.191406 1.410156 -10.222656 1.671875 -10.265625 C 1.941406 -10.304688 2.203125 -10.328125 2.453125 -10.328125 C 2.710938 -10.328125 2.9375 -10.304688 3.125 -10.265625 C 3.320312 -10.222656 3.488281 -10.148438 3.625 -10.046875 C 3.757812 -9.953125 3.859375 -9.8125 3.921875 -9.625 C 3.992188 -9.445312 4.03125 -9.210938 4.03125 -8.921875 Z M 4.03125 -0.0625 "/></g></g></g><g fill="#ffffff" fill-opacity="1"><g transform="translate(275.129602, 55.547252)"><g><path d="M 4.03125 -0.0625 C 3.90625 -0.03125 3.707031 0 3.4375 0.03125 C 3.175781 0.0625 2.921875 0.078125 2.671875 0.078125 C 2.410156 0.078125 2.179688 0.0546875 1.984375 0.015625 C 1.785156 -0.015625 1.617188 -0.078125 1.484375 -0.171875 C 1.359375 -0.273438 1.257812 -0.414062 1.1875 -0.59375 C 1.125 -0.78125 1.09375 -1.019531 1.09375 -1.3125 L 1.09375 -10.171875 C 1.21875 -10.191406 1.410156 -10.222656 1.671875 -10.265625 C 1.941406 -10.304688 2.203125 -10.328125 2.453125 -10.328125 C 2.710938 -10.328125 2.9375 -10.304688 3.125 -10.265625 C 3.320312 -10.222656 3.488281 -10.148438 3.625 -10.046875 C 3.757812 -9.953125 3.859375 -9.8125 3.921875 -9.625 C 3.992188 -9.445312 4.03125 -9.210938 4.03125 -8.921875 Z M 4.03125 -0.0625 "/></g></g></g><g clip-path="url(#id1)"><g clip-path="url(#id2)"><g clip-path="url(#id3)"><path fill="#ffffff" d="M 40.738281 35.097656 C 41.003906 35.367188 41.242188 35.65625 41.453125 35.96875 C 41.660156 36.28125 41.835938 36.613281 41.980469 36.960938 C 42.125 37.308594 42.234375 37.664062 42.308594 38.035156 C 42.382812 38.40625 42.417969 38.777344 42.417969 39.152344 C 42.417969 39.53125 42.382812 39.902344 42.308594 40.273438 C 42.234375 40.640625 42.125 41 41.980469 41.347656 C 41.835938 41.695312 41.660156 42.027344 41.453125 42.339844 C 41.242188 42.652344 41.003906 42.941406 40.738281 43.207031 C 40.472656 43.476562 40.183594 43.710938 39.871094 43.921875 C 39.558594 44.132812 39.226562 44.308594 38.878906 44.453125 C 38.53125 44.597656 38.171875 44.703125 37.800781 44.777344 C 37.433594 44.851562 37.058594 44.886719 36.683594 44.886719 C 36.308594 44.886719 35.933594 44.851562 35.566406 44.777344 C 35.195312 44.703125 34.835938 44.597656 34.488281 44.453125 C 34.140625 44.308594 33.8125 44.132812 33.5 43.921875 C 33.183594 43.710938 32.894531 43.476562 32.628906 43.207031 C 32.363281 42.941406 32.125 42.652344 31.914062 42.339844 C 31.707031 42.027344 31.53125 41.695312 31.386719 41.347656 C 31.242188 41 31.132812 40.640625 31.058594 40.273438 C 30.984375 39.902344 30.949219 39.53125 30.949219 39.152344 C 30.949219 38.777344 30.984375 38.40625 31.058594 38.035156 C 31.132812 37.664062 31.242188 37.308594 31.386719 36.960938 C 31.53125 36.613281 31.707031 36.28125 31.914062 35.96875 C 32.125 35.65625 32.363281 35.367188 32.628906 35.097656 C 32.894531 34.832031 33.183594 34.59375 33.5 34.386719 C 33.8125 34.175781 34.140625 34 34.488281 33.855469 C 34.835938 33.710938 35.195312 33.601562 35.566406 33.53125 C 35.933594 33.457031 36.308594 33.417969 36.683594 33.417969 C 37.058594 33.417969 37.433594 33.457031 37.800781 33.53125 C 38.171875 33.601562 38.53125 33.710938 38.878906 33.855469 C 39.226562 34 39.558594 34.175781 39.871094 34.386719 C 40.183594 34.59375 40.472656 34.832031 40.738281 35.097656 Z M 40.738281 35.097656 " fill-opacity="1" fill-rule="nonzero"/></g></g></g><g clip-path="url(#id4)"><g clip-path="url(#id5)"><g clip-path="url(#id6)"><path fill="#628699" d="M 51.164062 45.527344 C 51.433594 45.792969 51.667969 46.082031 51.878906 46.394531 C 52.085938 46.707031 52.265625 47.039062 52.410156 47.386719 C 52.550781 47.734375 52.660156 48.09375 52.734375 48.460938 C 52.808594 48.832031 52.84375 49.203125 52.84375 49.582031 C 52.84375 49.957031 52.808594 50.328125 52.734375 50.699219 C 52.660156 51.070312 52.550781 51.425781 52.410156 51.773438 C 52.265625 52.121094 52.085938 52.453125 51.878906 52.765625 C 51.667969 53.078125 51.433594 53.367188 51.164062 53.636719 C 50.898438 53.902344 50.609375 54.140625 50.296875 54.347656 C 49.984375 54.558594 49.652344 54.734375 49.304688 54.878906 C 48.957031 55.023438 48.597656 55.132812 48.230469 55.203125 C 47.859375 55.277344 47.488281 55.316406 47.109375 55.316406 C 46.734375 55.316406 46.359375 55.277344 45.992188 55.203125 C 45.621094 55.132812 45.265625 55.023438 44.917969 54.878906 C 44.566406 54.734375 44.238281 54.558594 43.925781 54.347656 C 43.613281 54.140625 43.320312 53.902344 43.054688 53.636719 C 42.789062 53.367188 42.550781 53.078125 42.34375 52.765625 C 42.132812 52.453125 41.957031 52.121094 41.8125 51.773438 C 41.667969 51.425781 41.558594 51.070312 41.488281 50.699219 C 41.414062 50.328125 41.375 49.957031 41.375 49.582031 C 41.375 49.203125 41.414062 48.832031 41.488281 48.460938 C 41.558594 48.09375 41.667969 47.734375 41.8125 47.386719 C 41.957031 47.039062 42.132812 46.707031 42.34375 46.394531 C 42.550781 46.082031 42.789062 45.792969 43.054688 45.527344 C 43.320312 45.257812 43.613281 45.023438 43.925781 44.8125 C 44.238281 44.601562 44.566406 44.425781 44.917969 44.28125 C 45.265625 44.136719 45.621094 44.03125 45.992188 43.957031 C 46.359375 43.882812 46.734375 43.847656 47.109375 43.847656 C 47.488281 43.847656 47.859375 43.882812 48.230469 43.957031 C 48.597656 44.03125 48.957031 44.136719 49.304688 44.28125 C 49.652344 44.425781 49.984375 44.601562 50.296875 44.8125 C 50.609375 45.023438 50.898438 45.257812 51.164062 45.527344 Z M 51.164062 45.527344 " fill-opacity="1" fill-rule="nonzero"/></g></g></g><g clip-path="url(#id7)"><g clip-path="url(#id8)"><g clip-path="url(#id9)"><path fill="#628699" d="M 51.164062 24.621094 C 51.433594 24.886719 51.667969 25.179688 51.878906 25.492188 C 52.085938 25.804688 52.265625 26.132812 52.410156 26.480469 C 52.550781 26.832031 52.660156 27.1875 52.734375 27.558594 C 52.808594 27.925781 52.84375 28.300781 52.84375 28.675781 C 52.84375 29.054688 52.808594 29.425781 52.734375 29.796875 C 52.660156 30.164062 52.550781 30.523438 52.410156 30.871094 C 52.265625 31.21875 52.085938 31.550781 51.878906 31.863281 C 51.667969 32.175781 51.433594 32.464844 51.164062 32.730469 C 50.898438 32.996094 50.609375 33.234375 50.296875 33.445312 C 49.984375 33.652344 49.652344 33.832031 49.304688 33.976562 C 48.957031 34.117188 48.597656 34.226562 48.230469 34.300781 C 47.859375 34.375 47.488281 34.410156 47.109375 34.410156 C 46.734375 34.410156 46.359375 34.375 45.992188 34.300781 C 45.621094 34.226562 45.265625 34.117188 44.917969 33.976562 C 44.566406 33.832031 44.238281 33.652344 43.925781 33.445312 C 43.613281 33.234375 43.320312 32.996094 43.054688 32.730469 C 42.789062 32.464844 42.550781 32.175781 42.34375 31.863281 C 42.132812 31.550781 41.957031 31.21875 41.8125 30.871094 C 41.667969 30.523438 41.558594 30.164062 41.488281 29.796875 C 41.414062 29.425781 41.375 29.054688 41.375 28.675781 C 41.375 28.300781 41.414062 27.925781 41.488281 27.558594 C 41.558594 27.1875 41.667969 26.832031 41.8125 26.480469 C 41.957031 26.132812 42.132812 25.804688 42.34375 25.492188 C 42.550781 25.179688 42.789062 24.886719 43.054688 24.621094 C 43.320312 24.355469 43.613281 24.117188 43.925781 23.910156 C 44.238281 23.699219 44.566406 23.523438 44.917969 23.378906 C 45.265625 23.234375 45.621094 23.125 45.992188 23.050781 C 46.359375 22.980469 46.734375 22.941406 47.109375 22.941406 C 47.488281 22.941406 47.859375 22.980469 48.230469 23.050781 C 48.597656 23.125 48.957031 23.234375 49.304688 23.378906 C 49.652344 23.523438 49.984375 23.699219 50.296875 23.910156 C 50.609375 24.117188 50.898438 24.355469 51.164062 24.621094 Z M 51.164062 24.621094 " fill-opacity="1" fill-rule="nonzero"/></g></g></g><g clip-path="url(#id10)"><g clip-path="url(#id11)"><g clip-path="url(#id12)"><path fill="#ffffff" d="M 61.617188 35.074219 C 61.882812 35.339844 62.121094 35.628906 62.332031 35.941406 C 62.539062 36.253906 62.714844 36.585938 62.859375 36.933594 C 63.003906 37.28125 63.113281 37.640625 63.1875 38.011719 C 63.261719 38.378906 63.296875 38.753906 63.296875 39.128906 C 63.296875 39.503906 63.261719 39.878906 63.1875 40.246094 C 63.113281 40.617188 63.003906 40.976562 62.859375 41.324219 C 62.714844 41.671875 62.539062 42 62.332031 42.316406 C 62.121094 42.628906 61.882812 42.917969 61.617188 43.183594 C 61.351562 43.449219 61.0625 43.6875 60.75 43.898438 C 60.433594 44.105469 60.105469 44.28125 59.757812 44.425781 C 59.410156 44.570312 59.050781 44.679688 58.679688 44.753906 C 58.3125 44.828125 57.9375 44.863281 57.5625 44.863281 C 57.1875 44.863281 56.8125 44.828125 56.445312 44.753906 C 56.074219 44.679688 55.714844 44.570312 55.367188 44.425781 C 55.019531 44.28125 54.691406 44.105469 54.375 43.898438 C 54.0625 43.6875 53.773438 43.449219 53.507812 43.183594 C 53.242188 42.917969 53.003906 42.628906 52.792969 42.316406 C 52.585938 42 52.410156 41.671875 52.265625 41.324219 C 52.121094 40.976562 52.011719 40.617188 51.9375 40.246094 C 51.863281 39.878906 51.828125 39.503906 51.828125 39.128906 C 51.828125 38.753906 51.863281 38.378906 51.9375 38.011719 C 52.011719 37.640625 52.121094 37.28125 52.265625 36.933594 C 52.410156 36.585938 52.585938 36.253906 52.792969 35.941406 C 53.003906 35.628906 53.242188 35.339844 53.507812 35.074219 C 53.773438 34.808594 54.0625 34.570312 54.375 34.359375 C 54.691406 34.152344 55.019531 33.976562 55.367188 33.832031 C 55.714844 33.6875 56.074219 33.578125 56.445312 33.503906 C 56.8125 33.429688 57.1875 33.394531 57.5625 33.394531 C 57.9375 33.394531 58.3125 33.429688 58.679688 33.503906 C 59.050781 33.578125 59.410156 33.6875 59.757812 33.832031 C 60.105469 33.976562 60.433594 34.152344 60.75 34.359375 C 61.0625 34.570312 61.351562 34.808594 61.617188 35.074219 Z M 61.617188 35.074219 " fill-opacity="1" fill-rule="nonzero"/></g></g></g></svg>